<svg version="1.2" xmlns="http://www.w3.org/2000/svg" viewBox="0 0 122 17" width="122" height="17"><style>.a{fill:#f85119}</style><path class="a" d="m9 14.3l-4.1 2.5q-0.3 0.2-0.6 0.1-0.3 0-0.5-0.2-0.3-0.1-0.4-0.4-0.1-0.3 0-0.6l1.1-4.7-3.7-3.2q-0.3-0.2-0.3-0.5-0.1-0.3 0-0.6 0.1-0.2 0.3-0.4 0.2-0.2 0.6-0.2l4.8-0.5 1.9-4.4q0.1-0.3 0.4-0.5 0.2-0.1 0.5-0.1 0.3 0 0.5 0.1 0.3 0.2 0.4 0.5l1.9 4.4 4.9 0.5q0.3 0 0.5 0.2 0.2 0.2 0.3 0.4 0.1 0.3 0 0.6 0 0.3-0.3 0.5l-3.6 3.2 1.1 4.7q0 0.3-0.1 0.6-0.1 0.3-0.3 0.4-0.3 0.2-0.6 0.2-0.3 0.1-0.5-0.1z"/><path class="a" d="m35 14.3l-4.1 2.5q-0.3 0.2-0.6 0.1-0.3 0-0.5-0.2-0.3-0.1-0.4-0.4-0.1-0.3 0-0.6l1.1-4.7-3.7-3.2q-0.3-0.2-0.3-0.5-0.1-0.3 0-0.6 0.1-0.2 0.3-0.4 0.2-0.2 0.6-0.2l4.8-0.5 1.9-4.4q0.1-0.3 0.4-0.5 0.2-0.1 0.5-0.1 0.3 0 0.5 0.1 0.3 0.2 0.4 0.5l1.9 4.4 4.9 0.5q0.3 0 0.5 0.2 0.2 0.2 0.3 0.4 0.1 0.3 0 0.6 0 0.3-0.3 0.5l-3.6 3.2 1.1 4.7q0 0.3-0.1 0.6-0.1 0.3-0.3 0.4-0.3 0.2-0.6 0.2-0.3 0.1-0.5-0.1z"/><path class="a" d="m61 14.3l-4.1 2.5q-0.3 0.2-0.6 0.1-0.3 0-0.5-0.2-0.3-0.1-0.4-0.4-0.1-0.3 0-0.6l1.1-4.7-3.7-3.2q-0.3-0.2-0.3-0.5-0.1-0.3 0-0.6 0.1-0.2 0.3-0.4 0.2-0.2 0.6-0.2l4.8-0.5 1.9-4.4q0.1-0.3 0.4-0.5 0.2-0.1 0.5-0.1 0.3 0 0.5 0.1 0.3 0.2 0.4 0.5l1.9 4.4 4.9 0.5q0.3 0 0.5 0.2 0.2 0.2 0.3 0.4 0.1 0.3 0 0.6 0 0.3-0.3 0.5l-3.6 3.2 1.1 4.7q0 0.3-0.1 0.6-0.1 0.3-0.3 0.4-0.3 0.2-0.6 0.2-0.3 0.1-0.5-0.1z"/><path class="a" d="m87 14.3l-4.1 2.5q-0.3 0.2-0.6 0.1-0.3 0-0.5-0.2-0.3-0.1-0.4-0.4-0.1-0.3 0-0.6l1.1-4.7-3.7-3.2q-0.3-0.2-0.3-0.5-0.1-0.3 0-0.6 0.1-0.2 0.3-0.4 0.2-0.2 0.6-0.2l4.8-0.5 1.9-4.4q0.1-0.3 0.4-0.5 0.2-0.1 0.5-0.1 0.3 0 0.5 0.1 0.3 0.2 0.4 0.5l1.9 4.4 4.9 0.5q0.3 0 0.5 0.2 0.2 0.2 0.3 0.4 0.1 0.3 0 0.6 0 0.3-0.3 0.5l-3.6 3.2 1.1 4.7q0 0.3-0.1 0.6-0.1 0.3-0.3 0.4-0.3 0.2-0.6 0.2-0.3 0.1-0.5-0.1z"/><path class="a" d="m113 14.3l-4.2 2.5q-0.2 0.2-0.5 0.1-0.3 0-0.5-0.2-0.3-0.1-0.4-0.4-0.1-0.3-0.1-0.6l1.2-4.7-3.7-3.2q-0.3-0.2-0.3-0.5-0.1-0.3 0-0.6 0.1-0.2 0.3-0.4 0.2-0.2 0.5-0.2l4.9-0.5 1.9-4.4q0.1-0.3 0.4-0.5 0.2-0.1 0.5-0.1 0.3 0 0.5 0.1 0.3 0.2 0.4 0.5l1.9 4.4 4.9 0.5q0.3 0 0.5 0.2 0.2 0.2 0.3 0.4 0.1 0.3 0 0.6 0 0.3-0.3 0.5l-3.7 3.2 1.2 4.7q0 0.3-0.1 0.6-0.1 0.3-0.3 0.4-0.3 0.2-0.6 0.2-0.3 0.1-0.5-0.1z"/></svg>