<svg width="32" height="32" viewBox="0 0 32 32" fill="none" xmlns="http://www.w3.org/2000/svg">
<path d="M13.5 31C15.2595 31 16.716 29.6935 16.96 28H22.293L21.6465 28.6465L22.3535 29.3535L23.8535 27.8535C23.9001 27.8072 23.9371 27.7521 23.9623 27.6914C23.9875 27.6308 24.0005 27.5657 24.0005 27.5C24.0005 27.4343 23.9875 27.3692 23.9623 27.3086C23.9371 27.2479 23.9001 27.1928 23.8535 27.1465L22.3535 25.6465L21.6465 26.3535L22.293 27H16.96C16.716 25.3065 15.2595 24 13.5 24C11.57 24 10 25.57 10 27.5C10 29.43 11.57 31 13.5 31ZM13.5 25C14.8785 25 16 26.1215 16 27.5C16 28.8785 14.8785 30 13.5 30C12.1215 30 11 28.8785 11 27.5C11 26.1215 12.1215 25 13.5 25Z" fill="black"/>
<path d="M27.5 31C29.43 31 31 29.43 31 27.5C31 25.57 29.43 24 27.5 24C25.57 24 24 25.57 24 27.5C24 29.43 25.57 31 27.5 31ZM27.5 25C28.8785 25 30 26.1215 30 27.5C30 28.8785 28.8785 30 27.5 30C26.1215 30 25 28.8785 25 27.5C25 26.1215 26.1215 25 27.5 25ZM11.5 12.5C9.7405 12.5 8.284 13.8065 8.04 15.5H7.25C3.8035 15.5 1 18.3035 1 21.75C1 25.1965 3.8035 28 7.25 28H8.293L7.6465 28.6465L8.3535 29.3535L9.8535 27.8535C9.90009 27.8072 9.93707 27.7521 9.9623 27.6914C9.98753 27.6308 10.0005 27.5657 10.0005 27.5C10.0005 27.4343 9.98753 27.3692 9.9623 27.3086C9.93707 27.2479 9.90009 27.1928 9.8535 27.1465L8.3535 25.6465L7.6465 26.3535L8.293 27H7.25C4.355 27 2 24.645 2 21.75C2 18.855 4.355 16.5 7.25 16.5H8.04C8.284 18.1935 9.7405 19.5 11.5 19.5C13.43 19.5 15 17.93 15 16C15 14.07 13.43 12.5 11.5 12.5ZM11.5 18.5C10.1215 18.5 9 17.3785 9 16C9 14.6215 10.1215 13.5 11.5 13.5C12.8785 13.5 14 14.6215 14 16C14 17.3785 12.8785 18.5 11.5 18.5ZM13.3535 2.6465L12.6465 3.3535L13.293 4H7.96C7.716 2.3065 6.26 1 4.5 1C2.57 1 1 2.57 1 4.5C1 6.43 2.57 8 4.5 8C6.2595 8 7.716 6.6935 7.96 5H13.293L12.6465 5.6465L13.3535 6.3535L14.8535 4.8535C14.9001 4.80717 14.9371 4.75209 14.9623 4.69143C14.9875 4.63076 15.0005 4.5657 15.0005 4.5C15.0005 4.4343 14.9875 4.36924 14.9623 4.30857C14.9371 4.24791 14.9001 4.19283 14.8535 4.1465L13.3535 2.6465ZM4.5 7C3.1215 7 2 5.8785 2 4.5C2 3.1215 3.1215 2 4.5 2C5.8785 2 7 3.1215 7 4.5C7 5.8785 5.8785 7 4.5 7Z" fill="black"/>
<path d="M31 10.25C31 6.8035 28.1965 4 24.75 4H21.96C21.716 2.3065 20.26 1 18.5 1C16.57 1 15 2.57 15 4.5C15 6.43 16.57 8 18.5 8C20.2595 8 21.716 6.6935 21.96 5H24.75C27.645 5 30 7.355 30 10.25C30 13.145 27.645 15.5 24.75 15.5H16.707L17.3535 14.8535L16.6465 14.1465L15.1465 15.6465C15.0999 15.6928 15.063 15.7479 15.0377 15.8086C15.0125 15.8692 14.9995 15.9343 14.9995 16C14.9995 16.0657 15.0125 16.1308 15.0377 16.1914C15.063 16.2521 15.0999 16.3072 15.1465 16.3535L16.6465 17.8535L17.3535 17.1465L16.707 16.5H24.75C28.1965 16.5 31 13.6965 31 10.25ZM18.5 7C17.1215 7 16 5.8785 16 4.5C16 3.1215 17.1215 2 18.5 2C19.8785 2 21 3.1215 21 4.5C21 5.8785 19.8785 7 18.5 7Z" fill="black"/>
</svg>
