<svg width="32" height="32" viewBox="0 0 32 32" fill="none" xmlns="http://www.w3.org/2000/svg">
<mask id="mask0_151_489" style="mask-type:luminance" maskUnits="userSpaceOnUse" x="0" y="0" width="32" height="32">
<path d="M31.4502 31.4502V0.549805H0.549805V31.4502H31.4502Z" fill="white" stroke="white" stroke-width="1.1"/>
</mask>
<g mask="url(#mask0_151_489)">
<path d="M18.4343 18.7595V22.0728C18.4343 22.7137 18.9539 23.2332 19.5946 23.2332H24.0737C24.2325 21.3594 25.8037 19.8882 27.718 19.8882C28.3663 19.8873 29.003 20.0595 29.5625 20.3869V9.86351C29.5625 9.2227 29.0429 8.7032 28.4021 8.7032H19.5946C18.9539 8.7032 18.4343 9.2227 18.4343 9.86351V13.2615" stroke="black" stroke-width="1.1" stroke-miterlimit="10" stroke-linecap="round" stroke-linejoin="round"/>
<path d="M7.3881 18.888C5.84936 18.888 4.60186 17.6405 4.60186 16.1018C4.60186 14.5631 5.84936 13.3156 7.3881 13.3156C8.92747 13.3156 10.175 14.5631 10.175 16.1018C10.175 17.6405 8.92747 18.888 7.3881 18.888ZM13.3543 17.3805C13.1943 17.2175 13.115 16.9918 13.1412 16.7649C13.1662 16.5474 13.1787 16.3262 13.1787 16.1018C13.1787 15.8774 13.1662 15.6562 13.1412 15.4387C13.115 15.2118 13.1943 14.9862 13.3543 14.8237L13.8406 14.3293C14.1825 13.9812 14.25 13.4481 14.0062 13.0262L13.3612 11.9081C13.1175 11.4862 12.6212 11.2787 12.1493 11.4006L11.4787 11.5743C11.2575 11.6318 11.0212 11.5874 10.8375 11.4512C10.4816 11.1863 10.0963 10.9634 9.68934 10.7868C9.4806 10.6962 9.32435 10.5144 9.26372 10.2943L9.07997 9.62807C8.94935 9.15807 8.52185 8.83245 8.03435 8.83245H6.7431C6.2556 8.83245 5.82748 9.15807 5.69748 9.62807L5.51311 10.2949C5.45248 10.5144 5.29686 10.6962 5.08748 10.7868C4.68038 10.9635 4.29494 11.1865 3.93874 11.4512C3.75561 11.5874 3.51936 11.6318 3.29811 11.5743L2.62749 11.4006C2.39788 11.3412 2.15515 11.3587 1.93642 11.4504C1.71768 11.542 1.53498 11.7028 1.41624 11.9081L0.770622 13.0262C0.526247 13.4481 0.594372 13.9812 0.936871 14.3293L1.42249 14.8231C1.58249 14.9862 1.66187 15.2118 1.63562 15.4387C1.61062 15.6562 1.59812 15.8774 1.59812 16.1018C1.59812 16.3262 1.61062 16.5474 1.63562 16.7656C1.66187 16.9918 1.58249 17.2181 1.42249 17.3805L0.936871 17.8743C0.594372 18.2225 0.526247 18.7555 0.770622 19.1774L1.41624 20.2956C1.53499 20.5009 1.7177 20.6616 1.93643 20.7533C2.15516 20.8449 2.39788 20.8624 2.62749 20.803L3.29811 20.6293C3.51936 20.5718 3.75561 20.6162 3.93874 20.7524C4.29494 21.0171 4.68038 21.2401 5.08748 21.4168C5.29686 21.5074 5.45248 21.6893 5.51311 21.9093L5.69748 22.5755C5.7608 22.8042 5.89734 23.0059 6.08619 23.1496C6.27505 23.2933 6.5058 23.3711 6.7431 23.3711H8.03435C8.52185 23.3711 8.94935 23.0456 9.07997 22.5755L9.26372 21.9093C9.32435 21.6893 9.4806 21.5074 9.68934 21.4168C10.0963 21.2402 10.4816 21.0173 10.8375 20.7524C11.0212 20.6162 11.2575 20.5718 11.4787 20.6293L12.1493 20.803C12.6212 20.9249 13.1175 20.7175 13.3612 20.2956L14.0062 19.1774C14.1248 18.972 14.1729 18.7333 14.143 18.498C14.113 18.2626 14.0068 18.0435 13.8406 17.8743L13.3543 17.3805Z" stroke="black" stroke-width="1.1" stroke-miterlimit="10" stroke-linecap="round" stroke-linejoin="round"/>
<path d="M31.375 23.5453C31.375 25.565 29.7376 27.2024 27.7179 27.2024C25.6981 27.2024 24.0608 25.565 24.0608 23.5453C24.0608 21.5256 25.6981 19.8882 27.7179 19.8882C29.7376 19.8882 31.375 21.5256 31.375 23.5453Z" stroke="black" stroke-width="1.1" stroke-miterlimit="10" stroke-linecap="round" stroke-linejoin="round"/>
<path d="M21.5625 12.4771H26.5" stroke="black" stroke-width="1.1" stroke-miterlimit="10" stroke-linecap="round" stroke-linejoin="round"/>
<path d="M21.5625 15.9641H26.5" stroke="black" stroke-width="1.1" stroke-miterlimit="10" stroke-linecap="round" stroke-linejoin="round"/>
<path d="M21.5625 19.5759H23.21" stroke="black" stroke-width="1.1" stroke-miterlimit="10" stroke-linecap="round" stroke-linejoin="round"/>
<path d="M26.3886 23.795L27.2224 24.6287L28.9261 22.9249" stroke="black" stroke-width="1.1" stroke-miterlimit="10" stroke-linecap="round" stroke-linejoin="round"/>
<path d="M22.7216 27.1416C20.5561 28.6231 17.9363 29.49 15.1144 29.49C11.9875 29.49 9.10878 28.4257 6.82129 26.6401" stroke="black" stroke-width="1.1" stroke-miterlimit="10" stroke-linecap="round" stroke-linejoin="round"/>
<path d="M6.54685 5.58008C8.87685 3.66196 11.8612 2.51009 15.1143 2.51009C18.3674 2.51009 21.3518 3.66196 23.6818 5.58008" stroke="black" stroke-width="1.1" stroke-miterlimit="10" stroke-linecap="round" stroke-linejoin="round"/>
<path d="M7.31866 29.0103L6.82129 26.6326L9.27159 26.2425" stroke="black" stroke-width="1.1" stroke-miterlimit="10" stroke-linecap="round" stroke-linejoin="round"/>
<path d="M23.1846 3.20223L23.6818 5.5801L21.2318 5.96997" stroke="black" stroke-width="1.1" stroke-miterlimit="10" stroke-linecap="round" stroke-linejoin="round"/>
</g>
</svg>
