<svg width="32" height="32" viewBox="0 0 32 32" fill="none" xmlns="http://www.w3.org/2000/svg">
<path d="M17 7.595C17 7.32 16.775 7.095 16.5 7.095H15.305C15.18 6.68 15.01 6.275 14.805 5.89L15.65 5.045C15.6964 4.99874 15.7331 4.9438 15.7582 4.88331C15.7833 4.82283 15.7962 4.75798 15.7962 4.6925C15.7962 4.62702 15.7833 4.56217 15.7582 4.50169C15.7331 4.4412 15.6964 4.38626 15.65 4.34L13.66 2.35C13.6137 2.30365 13.5588 2.26687 13.4983 2.24178C13.4378 2.21669 13.373 2.20378 13.3075 2.20378C13.242 2.20378 13.1772 2.21669 13.1167 2.24178C13.0562 2.26687 13.0013 2.30365 12.955 2.35L12.11 3.195C11.725 2.99 11.32 2.82 10.905 2.695V1.5C10.905 1.225 10.68 1 10.405 1H7.595C7.32 1 7.095 1.225 7.095 1.5V2.695C6.68 2.82 6.275 2.99 5.89 3.195L5.045 2.35C4.99874 2.30365 4.9438 2.26687 4.88331 2.24178C4.82283 2.21669 4.75798 2.20378 4.6925 2.20378C4.62702 2.20378 4.56217 2.21669 4.50169 2.24178C4.4412 2.26687 4.38626 2.30365 4.34 2.35L2.35 4.34C2.30365 4.38626 2.26687 4.4412 2.24178 4.50169C2.21669 4.56217 2.20378 4.62702 2.20378 4.6925C2.20378 4.75798 2.21669 4.82283 2.24178 4.88331C2.26687 4.9438 2.30365 4.99874 2.35 5.045L3.195 5.89C2.99 6.275 2.82 6.68 2.695 7.095H1.5C1.225 7.095 1 7.32 1 7.595V10.405C1 10.68 1.225 10.905 1.5 10.905H2.695C2.82 11.32 2.99 11.725 3.195 12.11L2.35 12.955C2.30365 13.0013 2.26687 13.0562 2.24178 13.1167C2.21669 13.1772 2.20378 13.242 2.20378 13.3075C2.20378 13.373 2.21669 13.4378 2.24178 13.4983C2.26687 13.5588 2.30365 13.6137 2.35 13.66L4.34 15.65C4.535 15.845 4.85 15.845 5.045 15.65L5.89 14.805C6.275 15.01 6.68 15.18 7.095 15.305V16.5C7.095 16.775 7.32 17 7.595 17H10.405C10.68 17 10.905 16.775 10.905 16.5V15.305C11.32 15.18 11.725 15.01 12.11 14.805L12.955 15.65C13.15 15.845 13.465 15.845 13.66 15.65L15.65 13.66C15.6964 13.6137 15.7331 13.5588 15.7582 13.4983C15.7833 13.4378 15.7962 13.373 15.7962 13.3075C15.7962 13.242 15.7833 13.1772 15.7582 13.1167C15.7331 13.0562 15.6964 13.0013 15.65 12.955L14.805 12.11C15.01 11.725 15.18 11.32 15.305 10.905H16.5C16.775 10.905 17 10.68 17 10.405V7.595ZM16 9.905H14.925C14.695 9.905 14.49 10.065 14.44 10.29C14.305 10.87 14.075 11.42 13.76 11.93C13.64 12.125 13.67 12.38 13.83 12.545L14.59 13.305L13.31 14.585L12.55 13.825C12.4709 13.7448 12.3668 13.6941 12.2549 13.6813C12.143 13.6686 12.0301 13.6946 11.935 13.755C11.425 14.07 10.875 14.3 10.295 14.435C10.07 14.49 9.91 14.69 9.91 14.92V15.995H8.1V14.92C8.1 14.69 7.94 14.485 7.715 14.435C7.135 14.3 6.585 14.07 6.075 13.755C5.88 13.635 5.625 13.665 5.46 13.825L4.7 14.585L3.42 13.305L4.18 12.545C4.345 12.38 4.375 12.125 4.25 11.93C3.935 11.42 3.705 10.87 3.57 10.29C3.515 10.065 3.315 9.905 3.085 9.905H2.01V8.095H3.085C3.315 8.095 3.52 7.935 3.57 7.71C3.705 7.13 3.935 6.58 4.25 6.07C4.37 5.875 4.34 5.62 4.18 5.455L3.42 4.695L4.7 3.415L5.46 4.175C5.625 4.34 5.88 4.37 6.075 4.245C6.585 3.93 7.135 3.7 7.715 3.565C7.94 3.51 8.1 3.31 8.1 3.08V2.005H9.91V3.08C9.91 3.31 10.07 3.515 10.295 3.565C10.875 3.7 11.425 3.93 11.935 4.245C12.13 4.365 12.39 4.335 12.55 4.175L13.31 3.415L14.59 4.695L13.83 5.455C13.665 5.62 13.635 5.875 13.76 6.07C14.075 6.58 14.305 7.13 14.44 7.71C14.495 7.935 14.695 8.095 14.925 8.095H16V9.905Z" fill="black"/>
<path d="M9 5.5C7.07 5.5 5.5 7.07 5.5 9C5.5 10.93 7.07 12.5 9 12.5C10.93 12.5 12.5 10.93 12.5 9C12.5 7.07 10.93 5.5 9 5.5ZM9 11.5C7.62 11.5 6.5 10.38 6.5 9C6.5 7.62 7.62 6.5 9 6.5C10.38 6.5 11.5 7.62 11.5 9C11.5 10.38 10.38 11.5 9 11.5ZM24 16C20.52 16 17 16.86 17 18.5V28.5C17 30.14 20.52 31 24 31C27.48 31 31 30.14 31 28.5V18.5C31 16.86 27.48 16 24 16ZM30 23.5C30 24.03 27.72 25 24 25C20.28 25 18 24.03 18 23.5V19.85C19.29 20.61 21.655 21 24 21C26.345 21 28.71 20.61 30 19.85V23.5ZM24 17C27.72 17 30 17.97 30 18.5C30 19.03 27.72 20 24 20C20.28 20 18 19.03 18 18.5C18 17.97 20.28 17 24 17ZM24 30C20.28 30 18 29.03 18 28.5V24.85C19.29 25.61 21.655 26 24 26C26.345 26 28.71 25.61 30 24.85V28.5C30 29.03 27.72 30 24 30Z" fill="black"/>
<path d="M24 28.5C24.2761 28.5 24.5 28.2761 24.5 28C24.5 27.7239 24.2761 27.5 24 27.5C23.7239 27.5 23.5 27.7239 23.5 28C23.5 28.2761 23.7239 28.5 24 28.5Z" fill="black"/>
<path d="M24 23.5C24.2761 23.5 24.5 23.2761 24.5 23C24.5 22.7239 24.2761 22.5 24 22.5C23.7239 22.5 23.5 22.7239 23.5 23C23.5 23.2761 23.7239 23.5 24 23.5Z" fill="black"/>
<path d="M14.5 26H9.99998C9.17498 26 8.49998 25.325 8.49998 24.5V20.705L9.14498 21.35C9.24498 21.45 9.36998 21.495 9.49998 21.495C9.62998 21.495 9.75498 21.445 9.85498 21.35C9.90133 21.3037 9.9381 21.2488 9.96319 21.1883C9.98828 21.1278 10.0012 21.063 10.0012 20.9975C10.0012 20.932 9.98828 20.8672 9.96319 20.8067C9.9381 20.7462 9.90133 20.6913 9.85498 20.645L8.35498 19.145C8.30872 19.0986 8.25378 19.0619 8.19329 19.0368C8.1328 19.0117 8.06796 18.9988 8.00248 18.9988C7.93699 18.9988 7.87215 19.0117 7.81167 19.0368C7.75118 19.0619 7.69623 19.0986 7.64998 19.145L6.14998 20.645C6.10369 20.6913 6.06697 20.7462 6.04191 20.8067C6.01686 20.8672 6.00397 20.932 6.00397 20.9975C6.00397 21.063 6.01686 21.1278 6.04191 21.1883C6.06697 21.2488 6.10369 21.3037 6.14998 21.35C6.19627 21.3963 6.25122 21.433 6.31171 21.4581C6.37219 21.4831 6.43701 21.496 6.50248 21.496C6.56794 21.496 6.63277 21.4831 6.69325 21.4581C6.75373 21.433 6.80869 21.3963 6.85498 21.35L7.49998 20.705V24.5C7.49998 25.88 8.61998 27 9.99998 27H14.5C14.775 27 15 26.775 15 26.5C15 26.225 14.775 26 14.5 26ZM19.5 7H24C24.825 7 25.5 7.675 25.5 8.5V12.295L24.855 11.65C24.8087 11.6037 24.7537 11.567 24.6933 11.5419C24.6328 11.5169 24.5679 11.504 24.5025 11.504C24.3703 11.504 24.2435 11.5565 24.15 11.65C24.0565 11.7435 24.004 11.8703 24.004 12.0025C24.004 12.1347 24.0565 12.2615 24.15 12.355L25.65 13.855C25.75 13.955 25.875 14 26.005 14C26.135 14 26.26 13.95 26.36 13.855L27.86 12.355C27.9535 12.2615 28.006 12.1347 28.006 12.0025C28.006 11.8703 27.9535 11.7435 27.86 11.65C27.7665 11.5565 27.6397 11.504 27.5075 11.504C27.3753 11.504 27.2485 11.5565 27.155 11.65L26.51 12.295V8.5C26.51 7.12 25.39 6 24.01 6H19.51C19.235 6 19.01 6.225 19.01 6.5C19.01 6.775 19.235 7 19.51 7H19.5Z" fill="black"/>
</svg>
