<svg width="108" height="25" viewBox="0 0 108 25" fill="none" xmlns="http://www.w3.org/2000/svg">
<path d="M4.6011 19H0.944847L7.60181 0.0909085H11.8305L18.4967 19H14.8404L9.79002 3.96875H9.64229L4.6011 19ZM4.72113 11.5859H14.6927V14.3374H4.72113V11.5859ZM20.0596 19V4.81818H23.3003V7.18182H23.448C23.7066 6.36316 24.1498 5.73224 24.7776 5.28906C25.4116 4.83973 26.1348 4.61506 26.9473 4.61506C27.132 4.61506 27.3382 4.62429 27.5659 4.64275C27.7998 4.65507 27.9937 4.67661 28.1476 4.70739V7.78196C28.0061 7.73272 27.7814 7.68963 27.4736 7.6527C27.172 7.60961 26.8796 7.58807 26.5965 7.58807C25.9871 7.58807 25.4393 7.72041 24.953 7.98508C24.4729 8.24361 24.0944 8.60369 23.8174 9.06534C23.5404 9.52699 23.4019 10.0594 23.4019 10.6626V19H20.0596ZM37.4315 4.81818V7.40341H29.2788V4.81818H37.4315ZM31.2916 1.42045H34.634V14.7344C34.634 15.1837 34.7017 15.5284 34.8371 15.7685C34.9787 16.0024 35.1633 16.1624 35.3911 16.2486C35.6188 16.3348 35.8712 16.3778 36.1482 16.3778C36.3574 16.3778 36.5483 16.3625 36.7206 16.3317C36.8991 16.3009 37.0345 16.2732 37.1269 16.2486L37.6901 18.8615C37.5116 18.9231 37.2561 18.9908 36.9237 19.0646C36.5975 19.1385 36.1974 19.1816 35.7234 19.1939C34.8863 19.2185 34.1323 19.0923 33.4614 18.8153C32.7904 18.5322 32.258 18.0952 31.8641 17.5043C31.4763 16.9134 31.2855 16.1747 31.2916 15.2884V1.42045ZM45.5729 19.277C44.151 19.277 42.923 18.9815 41.8889 18.3906C40.861 17.7936 40.07 16.9503 39.5161 15.8608C38.9621 14.7652 38.6851 13.4756 38.6851 11.9922C38.6851 10.5334 38.9621 9.25308 39.5161 8.15128C40.0762 7.04332 40.8579 6.18158 41.8612 5.56605C42.8646 4.94437 44.0433 4.63352 45.3975 4.63352C46.2715 4.63352 47.0963 4.77509 47.8719 5.05824C48.6536 5.33523 49.343 5.7661 49.9401 6.35085C50.5433 6.93561 51.0173 7.6804 51.362 8.58523C51.7066 9.4839 51.879 10.5549 51.879 11.7983V12.8232H40.2547V10.5703H48.6752C48.669 9.93016 48.5305 9.36079 48.2597 8.86222C47.9888 8.35748 47.6103 7.96046 47.124 7.67116C46.6439 7.38187 46.0838 7.23722 45.4436 7.23722C44.7604 7.23722 44.1602 7.40341 43.6432 7.73579C43.1262 8.06203 42.723 8.4929 42.4337 9.02841C42.1505 9.55776 42.0059 10.1394 41.9997 10.7734V12.7401C41.9997 13.5649 42.1505 14.2727 42.4521 14.8636C42.7538 15.4484 43.1754 15.8977 43.7171 16.2116C44.2587 16.5194 44.8927 16.6733 45.6191 16.6733C46.1053 16.6733 46.5454 16.6056 46.9394 16.4702C47.3333 16.3286 47.6749 16.1224 47.9642 15.8516C48.2535 15.5807 48.472 15.2453 48.6198 14.8452L51.7405 15.196C51.5435 16.0208 51.1681 16.741 50.6141 17.3565C50.0663 17.9659 49.3646 18.4399 48.509 18.7784C47.6534 19.1108 46.6747 19.277 45.5729 19.277ZM60.0942 24.6136C58.8939 24.6136 57.8629 24.4505 57.0012 24.1243C56.1394 23.8042 55.4469 23.3733 54.9237 22.8317C54.4005 22.29 54.0374 21.6899 53.8343 21.0312L56.8442 20.3018C56.9796 20.5788 57.1766 20.8527 57.4351 21.1236C57.6936 21.4006 58.0414 21.6283 58.4784 21.8068C58.9216 21.9915 59.4787 22.0838 60.1496 22.0838C61.0975 22.0838 61.8823 21.853 62.504 21.3913C63.1257 20.9358 63.4365 20.1849 63.4365 19.1385V16.4517H63.2703C63.098 16.7964 62.8456 17.1503 62.5132 17.5135C62.187 17.8767 61.7531 18.1813 61.2114 18.4276C60.6759 18.6738 60.0019 18.7969 59.1894 18.7969C58.0999 18.7969 57.112 18.5414 56.2256 18.0305C55.3454 17.5135 54.6437 16.7441 54.1205 15.7223C53.6034 14.6944 53.3449 13.4079 53.3449 11.8629C53.3449 10.3056 53.6034 8.99148 54.1205 7.92045C54.6437 6.84328 55.3485 6.0277 56.2348 5.47372C57.1212 4.91359 58.1091 4.63352 59.1986 4.63352C60.0296 4.63352 60.7128 4.77509 61.2483 5.05824C61.79 5.33523 62.2209 5.67069 62.5409 6.06463C62.861 6.45241 63.1041 6.81865 63.2703 7.16335H63.455V4.81818H66.7512V19.2308C66.7512 20.4434 66.4619 21.4467 65.8833 22.2408C65.3047 23.0348 64.5137 23.6288 63.5104 24.0227C62.5071 24.4167 61.3684 24.6136 60.0942 24.6136ZM60.1219 16.1747C60.8298 16.1747 61.433 16.0024 61.9316 15.6577C62.4301 15.313 62.8087 14.8175 63.0672 14.1712C63.3257 13.5249 63.455 12.7493 63.455 11.8445C63.455 10.9519 63.3257 10.1702 63.0672 9.49929C62.8148 8.82836 62.4394 8.30824 61.9408 7.93892C61.4484 7.56345 60.8421 7.37571 60.1219 7.37571C59.3771 7.37571 58.7554 7.5696 58.2568 7.95739C57.7583 8.34517 57.3828 8.8776 57.1304 9.55469C56.8781 10.2256 56.7519 10.9889 56.7519 11.8445C56.7519 12.7124 56.8781 13.4725 57.1304 14.125C57.3889 14.7713 57.7675 15.276 58.2661 15.6392C58.7708 15.9962 59.3894 16.1747 60.1219 16.1747ZM75.5827 19.277C74.1977 19.277 72.9974 18.9723 71.9818 18.3629C70.9662 17.7536 70.1783 16.901 69.6182 15.8054C69.0642 14.7098 68.7872 13.4295 68.7872 11.9645C68.7872 10.4995 69.0642 9.21615 69.6182 8.11435C70.1783 7.01255 70.9662 6.15696 71.9818 5.54759C72.9974 4.93821 74.1977 4.63352 75.5827 4.63352C76.9676 4.63352 78.1679 4.93821 79.1835 5.54759C80.1991 6.15696 80.9839 7.01255 81.5379 8.11435C82.0981 9.21615 82.3781 10.4995 82.3781 11.9645C82.3781 13.4295 82.0981 14.7098 81.5379 15.8054C80.9839 16.901 80.1991 17.7536 79.1835 18.3629C78.1679 18.9723 76.9676 19.277 75.5827 19.277ZM75.6011 16.5994C76.3521 16.5994 76.9799 16.3932 77.4847 15.9808C77.9894 15.5623 78.3649 15.0021 78.6111 14.3004C78.8634 13.5987 78.9896 12.817 78.9896 11.9553C78.9896 11.0874 78.8634 10.3026 78.6111 9.60085C78.3649 8.89299 77.9894 8.32978 77.4847 7.91122C76.9799 7.49266 76.3521 7.28338 75.6011 7.28338C74.8317 7.28338 74.1916 7.49266 73.6807 7.91122C73.1759 8.32978 72.7974 8.89299 72.545 9.60085C72.2988 10.3026 72.1757 11.0874 72.1757 11.9553C72.1757 12.817 72.2988 13.5987 72.545 14.3004C72.7974 15.0021 73.1759 15.5623 73.6807 15.9808C74.1916 16.3932 74.8317 16.5994 75.6011 16.5994ZM96.3178 24.2997C94.3788 24.2997 92.6554 24.035 91.1473 23.5057C89.6454 22.9825 88.3774 22.21 87.3433 21.1882C86.3092 20.1726 85.5244 18.9323 84.9889 17.4673C84.4534 16.0024 84.1826 14.3281 84.1764 12.4446C84.1826 10.6042 84.4565 8.94531 84.9982 7.46804C85.5398 5.98461 86.3308 4.71662 87.371 3.66406C88.4113 2.60535 89.6823 1.79285 91.1842 1.22656C92.6861 0.660274 94.3942 0.37713 96.3085 0.37713C98.112 0.37713 99.7093 0.651041 101.1 1.19886C102.498 1.74668 103.676 2.50994 104.637 3.48864C105.603 4.46117 106.332 5.5999 106.825 6.90483C107.323 8.2036 107.573 9.61316 107.573 11.1335C107.573 12.1861 107.493 13.1832 107.333 14.125C107.173 15.0606 106.899 15.8916 106.511 16.6179C106.129 17.3442 105.609 17.9228 104.951 18.3537C104.292 18.7784 103.467 19.0092 102.476 19.0462C101.854 19.0769 101.31 19.0185 100.842 18.8707C100.374 18.723 99.9956 18.4922 99.7063 18.1783C99.4231 17.8582 99.2446 17.4673 99.1707 17.0057H99.06C98.9184 17.375 98.6506 17.7135 98.2567 18.0213C97.8689 18.3229 97.3888 18.5599 96.8163 18.7322C96.2439 18.8984 95.6068 18.9661 94.9051 18.9354C94.1542 18.8984 93.4586 18.7261 92.8185 18.4183C92.1845 18.1044 91.6305 17.6674 91.1565 17.1072C90.6887 16.541 90.3256 15.8577 90.0671 15.0575C89.8085 14.2573 89.6793 13.3494 89.6793 12.3338C89.6793 11.3428 89.8208 10.4687 90.104 9.71165C90.3871 8.95454 90.7657 8.30824 91.2396 7.77273C91.7198 7.23722 92.2614 6.81865 92.8646 6.51704C93.4679 6.20928 94.0895 6.01231 94.7297 5.92614C95.3945 5.83381 96.0192 5.84304 96.604 5.95384C97.1887 6.06463 97.675 6.2339 98.0628 6.46165C98.4567 6.68939 98.7029 6.93868 98.8014 7.20952H98.9307V6.17543H101.507V14.9652C101.513 15.4268 101.624 15.7992 101.839 16.0824C102.061 16.3655 102.368 16.5071 102.762 16.5071C103.255 16.5071 103.652 16.3132 103.953 15.9254C104.261 15.5315 104.483 14.9283 104.618 14.1158C104.76 13.2971 104.827 12.2507 104.821 10.9766C104.827 9.93016 104.689 8.98224 104.406 8.13281C104.129 7.27723 103.735 6.52628 103.224 5.87997C102.713 5.23366 102.101 4.69508 101.387 4.2642C100.679 3.82718 99.8909 3.49787 99.023 3.27628C98.1551 3.05469 97.2287 2.94389 96.2439 2.94389C94.7359 2.94389 93.4094 3.17472 92.2645 3.63636C91.1196 4.09186 90.1594 4.74124 89.3838 5.58452C88.6144 6.42779 88.0327 7.42803 87.6388 8.58523C87.251 9.73627 87.0571 11.0104 87.0571 12.4077C87.0571 13.9034 87.2602 15.2299 87.6665 16.3871C88.0789 17.5381 88.6821 18.5076 89.4761 19.2955C90.2702 20.0833 91.2519 20.6804 92.4215 21.0866C93.5971 21.4929 94.9482 21.696 96.4747 21.696C97.1764 21.696 97.8627 21.6406 98.5337 21.5298C99.2046 21.419 99.8078 21.2898 100.343 21.142C100.879 20.9943 101.291 20.8651 101.581 20.7543L102.365 23.0994C101.984 23.2964 101.467 23.4872 100.814 23.6719C100.168 23.8565 99.4539 24.0073 98.6722 24.1243C97.8966 24.2412 97.1118 24.2997 96.3178 24.2997ZM95.6715 16.2855C96.4532 16.2855 97.0779 16.1347 97.5457 15.8331C98.0135 15.5253 98.349 15.0698 98.5521 14.4666C98.7553 13.8634 98.8537 13.1125 98.8476 12.2138C98.8476 11.3767 98.743 10.6903 98.5337 10.1548C98.3244 9.61932 97.9889 9.2223 97.5273 8.96378C97.0656 8.70526 96.4532 8.57599 95.6899 8.57599C95.0005 8.57599 94.4127 8.73295 93.9264 9.04688C93.4463 9.3608 93.077 9.79474 92.8185 10.3487C92.5661 10.8965 92.4399 11.5213 92.4399 12.223C92.4399 12.9247 92.5415 13.5864 92.7446 14.2081C92.9539 14.8236 93.2924 15.3253 93.7602 15.7131C94.2342 16.0947 94.8713 16.2855 95.6715 16.2855Z" fill="white"/>
</svg>
