<svg width="32" height="32" viewBox="0 0 32 32" fill="none" xmlns="http://www.w3.org/2000/svg">
<mask id="mask0_151_443" style="mask-type:luminance" maskUnits="userSpaceOnUse" x="0" y="0" width="32" height="32">
<path d="M31.3496 31.3496V0.650391H0.650391V31.3496H31.3496Z" fill="white" stroke="white" stroke-width="1.3"/>
</mask>
<g mask="url(#mask0_151_443)">
<path d="M11.999 13.3496H12C12.193 13.3496 12.3496 13.193 12.3496 13C12.3496 12.8769 12.2866 12.7689 12.1875 12.7061L12.1836 12.7031C12.1294 12.6683 12.0663 12.6503 12.002 12.6504H12C11.807 12.6504 11.6504 12.807 11.6504 13C11.6504 13.0922 11.6845 13.1752 11.7422 13.2373L11.7441 13.2383C11.7765 13.2734 11.8156 13.3021 11.8594 13.3213C11.9032 13.3405 11.9512 13.3497 11.999 13.3496Z" fill="black" stroke="black" stroke-width="1.3"/>
<path d="M16 0.625013V4.75" stroke="black" stroke-width="1.3" stroke-linecap="round" stroke-linejoin="round"/>
<path d="M16 27.25V31.375" stroke="black" stroke-width="1.3" stroke-linecap="round" stroke-linejoin="round"/>
<path d="M4.14311 5.3933L6.79498 8.04517" stroke="black" stroke-width="1.3" stroke-linecap="round" stroke-linejoin="round"/>
<path d="M25.2049 24.5801L27.8568 27.2319" stroke="black" stroke-width="1.3" stroke-linecap="round" stroke-linejoin="round"/>
<path d="M27.8568 5.3933L25.2049 8.04517" stroke="black" stroke-width="1.3" stroke-linecap="round" stroke-linejoin="round"/>
<path d="M6.79498 24.5801L4.14311 27.2319" stroke="black" stroke-width="1.3" stroke-linecap="round" stroke-linejoin="round"/>
<path d="M29.7499 16C29.7499 16 24.2843 24.125 16 24.125C7.7156 24.125 2.24999 16 2.24999 16C2.24999 16 7.7156 7.87505 16 7.87505C24.2843 7.87505 29.7499 16 29.7499 16Z" stroke="black" stroke-width="1.3" stroke-linecap="round" stroke-linejoin="round"/>
<path d="M14.2131 11.3288C14.2355 11.32 14.2581 11.3119 14.2806 11.3038C14.3055 11.2944 14.3306 11.2857 14.3556 11.2769C14.3781 11.2688 14.4006 11.2613 14.4237 11.2538C14.492 11.2306 14.561 11.2093 14.6306 11.19C14.6687 11.1788 14.7075 11.1682 14.7468 11.1582C14.7881 11.1475 14.8293 11.1375 14.8706 11.1282C14.9093 11.1194 14.9475 11.1107 14.9862 11.1032C15.0175 11.0963 15.0487 11.09 15.0806 11.0844C15.1081 11.0794 15.1356 11.0744 15.1631 11.07C15.178 11.0669 15.1936 11.0644 15.2093 11.0625C15.2375 11.0575 15.2656 11.0538 15.2937 11.05C15.3012 11.0488 15.3081 11.0475 15.3156 11.0469C15.3393 11.0432 15.3637 11.04 15.3881 11.0369C15.4143 11.0338 15.4406 11.0307 15.4668 11.0282L15.5043 11.0244C15.5312 11.0213 15.5587 11.0188 15.5856 11.0169C15.5999 11.0157 15.6143 11.0144 15.6286 11.0138C15.6468 11.0119 15.6656 11.0107 15.6837 11.01C15.7106 11.0082 15.738 11.0069 15.765 11.0057C15.8 11.0038 15.835 11.0025 15.8706 11.0019C15.9131 11.0007 15.9568 11 16 11C18.7612 11 20.9999 13.2388 20.9999 16C20.9999 16.8631 20.7812 17.675 20.3962 18.3831C20.3386 18.4893 20.2771 18.5934 20.2118 18.695C20.1718 18.7575 20.1306 18.8188 20.0881 18.8794C20.0837 18.8856 20.0793 18.8913 20.0749 18.8975C19.9838 19.0263 19.8861 19.1505 19.7824 19.2694C19.704 19.3603 19.6223 19.4483 19.5374 19.5331C19.4606 19.6102 19.3812 19.6846 19.2993 19.7563C18.9546 20.06 18.5695 20.3145 18.1549 20.5125C18.0862 20.5456 18.0168 20.5769 17.9461 20.6069C17.7959 20.6703 17.6426 20.7264 17.4868 20.775C17.33 20.8237 17.1706 20.865 17.0075 20.8981C16.6759 20.9661 16.3384 21.0002 16 21C13.2387 21 11 18.7613 11 16C11 15.9569 11.0006 15.9138 11.0018 15.8713C11.0025 15.8363 11.0037 15.8019 11.0056 15.7669C11.0073 15.7252 11.0096 15.6835 11.0125 15.6419C11.015 15.6119 11.0168 15.5819 11.02 15.5519L11.0218 15.53C11.025 15.4944 11.0287 15.4588 11.0331 15.4238V15.4225C11.0374 15.385 11.0418 15.3475 11.0475 15.31C11.0512 15.2819 11.055 15.2538 11.06 15.2256C11.065 15.1881 11.0712 15.1519 11.0781 15.115C11.0793 15.105 11.0812 15.0956 11.0831 15.0856" stroke="black" stroke-width="1.3" stroke-linecap="round" stroke-linejoin="round"/>
<path d="M15.9999 17.875C14.9662 17.875 14.125 17.0338 14.125 16C14.125 14.9663 14.9662 14.125 15.9999 14.125C17.0337 14.125 17.8749 14.9663 17.8749 16C17.8749 17.0338 17.0337 17.875 15.9999 17.875Z" stroke="black" stroke-width="1.3" stroke-linecap="round" stroke-linejoin="round"/>
</g>
</svg>
