<svg width="545" height="164" viewBox="0 0 545 164" fill="none" xmlns="http://www.w3.org/2000/svg">
<path d="M24.4698 126.458H0L44.5523 0H72.8533L117.467 126.458H92.9976L59.1972 25.9337H58.2085L24.4698 126.458ZM25.2731 76.875H92.0089V95.2756H25.2731V76.875Z" fill="#F8F8F8"/>
<path d="M127.927 126.458V31.6145H149.616V47.4217H150.605C152.335 41.9468 155.301 37.7274 159.503 34.7636C163.746 31.7585 168.586 30.256 174.024 30.256C175.26 30.256 176.64 30.3178 178.164 30.4413C179.73 30.5236 181.027 30.6677 182.057 30.8735V51.4352C181.11 51.1059 179.606 50.8178 177.546 50.5708C175.528 50.2826 173.571 50.1386 171.676 50.1386C167.598 50.1386 163.931 51.0236 160.677 52.7937C157.464 54.5226 154.93 56.9307 153.077 60.0181C151.223 63.1054 150.296 66.6662 150.296 70.7003V126.458H127.927Z" fill="#F8F8F8"/>
<path d="M244.191 31.6145V48.9036H189.628V31.6145H244.191ZM203.099 8.89157H225.468V97.9307C225.468 100.936 225.921 103.241 226.827 104.846C227.775 106.411 229.01 107.481 230.535 108.057C232.059 108.634 233.748 108.922 235.602 108.922C237.002 108.922 238.279 108.819 239.433 108.613C240.627 108.407 241.534 108.222 242.152 108.057L245.921 125.532C244.726 125.943 243.017 126.396 240.792 126.89C238.609 127.384 235.931 127.672 232.759 127.755C227.157 127.919 222.11 127.075 217.62 125.223C213.13 123.329 209.566 120.407 206.93 116.455C204.335 112.503 203.058 107.563 203.099 101.636V8.89157Z" fill="#F8F8F8"/>
<path d="M298.677 128.31C289.161 128.31 280.943 126.334 274.022 122.383C267.143 118.39 261.849 112.75 258.142 105.464C254.434 98.1365 252.58 89.5126 252.58 79.5919C252.58 69.8358 254.434 61.2736 258.142 53.9051C261.89 46.4955 267.122 40.7324 273.837 36.616C280.552 32.4583 288.44 30.3795 297.503 30.3795C303.353 30.3795 308.873 31.3263 314.064 33.2199C319.296 35.0723 323.909 37.9538 327.905 41.8645C331.942 45.7751 335.114 50.756 337.421 56.8072C339.728 62.8173 340.882 69.9799 340.882 78.2952V85.1491H263.085V70.0828H319.44C319.398 65.8017 318.472 61.994 316.659 58.6596C314.846 55.2841 312.313 52.629 309.059 50.6943C305.845 48.7595 302.097 47.7922 297.812 47.7922C293.24 47.7922 289.223 48.9036 285.763 51.1265C282.302 53.3082 279.604 56.1898 277.668 59.7711C275.773 63.3112 274.805 67.2013 274.764 71.4413V84.5934C274.764 90.1094 275.773 94.8434 277.792 98.7952C279.81 102.706 282.632 105.711 286.257 107.81C289.882 109.868 294.125 110.898 298.986 110.898C302.241 110.898 305.186 110.445 307.823 109.539C310.459 108.592 312.746 107.213 314.682 105.402C316.618 103.591 318.08 101.347 319.069 98.6717L339.955 101.018C338.637 106.534 336.124 111.35 332.416 115.467C328.75 119.542 324.054 122.712 318.327 124.976C312.601 127.199 306.051 128.31 298.677 128.31Z" fill="#F8F8F8"/>
<path d="M395.863 164C387.83 164 380.93 162.909 375.162 160.727C369.395 158.587 364.761 155.705 361.259 152.083C357.757 148.46 355.327 144.447 353.967 140.042L374.112 135.164C375.018 137.017 376.336 138.848 378.067 140.66C379.797 142.512 382.124 144.035 385.049 145.229C388.015 146.464 391.743 147.081 396.233 147.081C402.578 147.081 407.83 145.538 411.991 142.45C416.151 139.404 418.232 134.382 418.232 127.384V109.416H417.119C415.966 111.721 414.277 114.088 412.052 116.517C409.869 118.945 406.965 120.983 403.34 122.63C399.756 124.276 395.245 125.099 389.807 125.099C382.516 125.099 375.904 123.391 369.972 119.974C364.081 116.517 359.385 111.371 355.883 104.538C352.423 97.6632 350.692 89.0597 350.692 78.7274C350.692 68.3128 352.423 59.5241 355.883 52.3614C359.385 45.1576 364.101 39.7033 370.033 35.9985C375.966 32.2525 382.577 30.3795 389.869 30.3795C395.43 30.3795 400.003 31.3263 403.587 33.2199C407.212 35.0723 410.096 37.3158 412.238 39.9503C414.38 42.5437 416.007 44.993 417.119 47.2982H418.355V31.6145H440.415V128.002C440.415 136.111 438.479 142.821 434.607 148.131C430.734 153.441 425.441 157.414 418.726 160.048C412.011 162.683 404.39 164 395.863 164ZM396.048 107.563C400.786 107.563 404.823 106.411 408.159 104.105C411.496 101.8 414.03 98.4865 415.76 94.1642C417.49 89.8419 418.355 84.6551 418.355 78.6039C418.355 72.635 417.49 67.4071 415.76 62.9202C414.071 58.4332 411.558 54.9548 408.221 52.4849C404.926 49.9739 400.868 48.7184 396.048 48.7184C391.064 48.7184 386.903 50.0151 383.566 52.6084C380.229 55.2018 377.716 58.7626 376.027 63.2907C374.338 67.7776 373.494 72.882 373.494 78.6039C373.494 84.4081 374.338 89.492 376.027 93.8554C377.758 98.1777 380.291 101.553 383.628 103.982C387.006 106.369 391.146 107.563 396.048 107.563Z" fill="#F8F8F8"/>
<path d="M499.521 128.31C490.252 128.31 482.219 126.273 475.422 122.197C468.625 118.122 463.352 112.421 459.603 105.093C455.895 97.7661 454.042 89.2038 454.042 79.4066C454.042 69.6094 455.895 61.0266 459.603 53.6581C463.352 46.2897 468.625 40.5678 475.422 36.4925C482.219 32.4172 490.252 30.3795 499.521 30.3795C508.79 30.3795 516.823 32.4172 523.62 36.4925C530.417 40.5678 535.669 46.2897 539.377 53.6581C543.126 61.0266 545 69.6094 545 79.4066C545 89.2038 543.126 97.7661 539.377 105.093C535.669 112.421 530.417 118.122 523.62 122.197C516.823 126.273 508.79 128.31 499.521 128.31ZM499.644 110.404C504.67 110.404 508.872 109.025 512.25 106.267C515.628 103.467 518.141 99.7214 519.789 95.0286C521.478 90.3358 522.322 85.1079 522.322 79.3449C522.322 73.5407 521.478 68.2922 519.789 63.5994C518.141 58.8655 515.628 55.0989 512.25 52.2997C508.872 49.5005 504.67 48.1009 499.644 48.1009C494.495 48.1009 490.211 49.5005 486.792 52.2997C483.414 55.0989 480.88 58.8655 479.191 63.5994C477.543 68.2922 476.719 73.5407 476.719 79.3449C476.719 85.1079 477.543 90.3358 479.191 95.0286C480.88 99.7214 483.414 103.467 486.792 106.267C490.211 109.025 494.495 110.404 499.644 110.404Z" fill="#F8F8F8"/>
</svg>
