<svg width="131" height="29" viewBox="0 0 131 29" fill="none" xmlns="http://www.w3.org/2000/svg">
<g clip-path="url(#clip0_2028_378)">
<path d="M39.9629 19.9022H49.173V17.3559H43.2364V7.76465H39.9629V19.9022Z" fill="white"/>
<path d="M54.6295 18.2052C53.3164 18.2052 52.6321 17.1528 52.6321 15.574C52.6321 13.9953 53.3164 12.9258 54.6295 12.9258C55.9425 12.9258 56.6453 13.9953 56.6453 15.574C56.6453 17.1528 55.9425 18.2052 54.6295 18.2052ZM54.648 20.1744C57.6995 20.1744 59.6968 18.1883 59.6968 15.574C59.6968 12.9598 57.6995 10.9736 54.648 10.9736C51.6149 10.9736 49.5806 12.9598 49.5806 15.574C49.5806 18.1883 51.6149 20.1744 54.648 20.1744Z" fill="white"/>
<path d="M64.9788 22.9069C66.3844 22.9069 67.6235 22.6183 68.4557 21.9393C69.214 21.3112 69.7133 20.3605 69.7133 19.0534V11.2107H66.8282V12.1443H66.7912C66.2364 11.4144 65.3857 10.9561 64.1281 10.9561C61.7793 10.9561 60.1519 12.7555 60.1519 15.3018C60.1519 17.967 62.1307 19.4269 64.2576 19.4269C65.4042 19.4269 66.1255 19.0025 66.6803 18.4253H66.7543V19.2911C66.7543 20.3436 66.2179 20.9547 64.9418 20.9547C63.9432 20.9547 63.4438 20.5643 63.2774 20.1059H60.3553C60.6512 21.9223 62.3711 22.9069 64.9788 22.9069ZM64.9603 17.3728C63.8322 17.3728 63.0924 16.5241 63.0924 15.2169C63.0924 13.8928 63.8322 13.0441 64.9603 13.0441C66.2179 13.0441 66.8837 14.0286 66.8837 15.2C66.8837 16.4222 66.2734 17.3728 64.9603 17.3728Z" fill="white"/>
<path d="M75.6456 18.2052C74.3325 18.2052 73.6482 17.1528 73.6482 15.574C73.6482 13.9953 74.3325 12.9258 75.6456 12.9258C76.9587 12.9258 77.6614 13.9953 77.6614 15.574C77.6614 17.1528 76.9587 18.2052 75.6456 18.2052ZM75.6641 20.1744C78.7156 20.1744 80.713 18.1883 80.713 15.574C80.713 12.9598 78.7156 10.9736 75.6641 10.9736C72.631 10.9736 70.5967 12.9598 70.5967 15.574C70.5967 18.1883 72.631 20.1744 75.6641 20.1744Z" fill="white"/>
<path d="M81.593 19.9022H84.6076V11.2107H81.593V19.9022ZM81.593 10.0054H84.6076V7.76465H81.593V10.0054Z" fill="white"/>
<path d="M85.916 22.7711H88.9306V19.0025H88.9675C89.5594 19.7324 90.4286 20.1738 91.6492 20.1738C94.1274 20.1738 95.7734 18.3744 95.7734 15.5564C95.7734 12.9422 94.2384 10.9561 91.7232 10.9561C90.4286 10.9561 89.5039 11.4823 88.8566 12.2632H88.8011V11.2107H85.916V22.7711ZM90.8724 18.0349C89.5779 18.0349 88.8381 17.0673 88.8381 15.6583C88.8381 14.2493 89.5039 13.1799 90.817 13.1799C92.1115 13.1799 92.7218 14.1644 92.7218 15.6583C92.7218 17.1352 92.0191 18.0349 90.8724 18.0349Z" fill="white"/>
<path d="M100.681 20.1738C103.159 20.1738 104.99 19.1892 104.99 17.288C104.99 15.0642 103.03 14.6737 101.365 14.4191C100.163 14.2154 99.0907 14.1305 99.0907 13.5194C99.0907 12.9762 99.664 12.7215 100.404 12.7215C101.236 12.7215 101.809 12.9592 101.92 13.7401H104.694C104.546 12.0255 103.104 10.9561 100.422 10.9561C98.1845 10.9561 96.3351 11.9067 96.3351 13.7401C96.3351 15.7771 98.092 16.1845 99.738 16.4392C100.996 16.6429 102.142 16.7278 102.142 17.5086C102.142 18.0688 101.569 18.3744 100.663 18.3744C99.664 18.3744 99.0352 17.95 98.9243 17.0842H96.0762C96.1686 19.0025 97.9071 20.1738 100.681 20.1738Z" fill="white"/>
<path d="M109.085 20.1571C110.398 20.1571 111.231 19.6818 111.915 18.833H111.97V19.9024H114.855V11.2109H111.841V16.066C111.841 17.1015 111.212 17.8144 110.176 17.8144C109.215 17.8144 108.752 17.2882 108.752 16.3376V11.2109H105.756V16.9147C105.756 18.85 106.903 20.1571 109.085 20.1571Z" fill="white"/>
<path d="M116.166 19.9022H119.181V15.0302C119.181 13.9947 119.736 13.2647 120.679 13.2647C121.585 13.2647 122.01 13.808 122.01 14.7416V19.9022H125.025V15.0302C125.025 13.9947 125.561 13.2647 126.523 13.2647C127.429 13.2647 127.855 13.808 127.855 14.7416V19.9022H130.869V14.2493C130.869 12.2971 129.796 10.9561 127.651 10.9561C126.431 10.9561 125.413 11.4314 124.674 12.4839H124.637C124.156 11.5502 123.213 10.9561 121.973 10.9561C120.605 10.9561 119.699 11.5502 119.107 12.4499H119.051V11.2107H116.166V19.9022Z" fill="white"/>
<path fill-rule="evenodd" clip-rule="evenodd" d="M15.9389 28.3903C24.4506 28.3903 31.3506 22.0568 31.3506 14.244C31.3506 6.43119 24.4506 0.0976562 15.9389 0.0976562C7.42717 0.0976562 0.5271 6.43119 0.5271 14.244C0.5271 22.0568 7.42717 28.3903 15.9389 28.3903ZM20.7468 6.68762C20.9808 5.92457 20.1741 5.47336 19.4373 5.95516L9.15238 12.6805C8.35336 13.203 8.47904 14.244 9.34118 14.244H12.0495V14.2247H17.3279L13.027 15.6177L11.1309 21.8004C10.8969 22.5634 11.7036 23.0146 12.4404 22.5328L22.7254 15.8075C23.5244 15.285 23.3986 14.244 22.5366 14.244H18.4295L20.7468 6.68762Z" fill="white"/>
</g>
<defs>
<clipPath id="clip0_2028_378">
<rect width="131" height="29" fill="white"/>
</clipPath>
</defs>
</svg>
