<svg width="134" height="33" viewBox="0 0 134 33" fill="none" xmlns="http://www.w3.org/2000/svg">
<g clip-path="url(#clip0_2028_361)">
<path d="M52.9591 6.48047H50.1521V23.1488H57.9228V19.8827H52.9591V6.48047Z" fill="white"/>
<path d="M58.1909 17.4954C58.1909 21.0544 60.0052 23.4194 62.7438 23.4194C65.4652 23.4194 67.2796 21.0544 67.2796 17.4954C67.2796 13.9365 65.4652 11.5488 62.7438 11.5488C60.0052 11.5488 58.1909 13.9365 58.1909 17.4954ZM60.8439 17.4728C60.8439 15.7836 61.597 14.6573 62.7438 14.6573C63.8735 14.6573 64.6266 15.7836 64.6266 17.4728C64.6266 19.1848 63.8735 20.3111 62.7438 20.3111C61.597 20.3111 60.8439 19.1848 60.8439 17.4728Z" fill="white"/>
<path d="M67.7034 17.3143C67.7034 20.7155 69.3809 23.013 71.7599 23.013C72.9068 23.013 73.8995 22.4724 74.3958 21.594V23.1482C74.3958 24.7024 73.6598 25.7385 72.359 25.7385C71.1951 25.7385 70.3906 25.0178 70.3393 23.7339H67.6692C67.9088 26.8198 69.7232 28.892 72.205 28.892C75.1318 28.892 76.9804 26.3918 76.9804 22.4274V11.8858H74.6012L74.4643 13.0345C73.9851 12.1111 72.9752 11.5029 71.8114 11.5029C69.415 11.5029 67.7034 13.868 67.7034 17.3143ZM70.3736 17.2242C70.3736 15.6024 71.1951 14.5212 72.2392 14.5212C73.4545 14.5212 74.3445 15.5799 74.3445 17.2242C74.3445 18.8685 73.4715 19.9948 72.2563 19.9948C71.2123 19.9948 70.3736 18.8685 70.3736 17.2242Z" fill="white"/>
<path d="M77.7488 17.4954C77.7488 21.0544 79.5632 23.4194 82.302 23.4194C85.0235 23.4194 86.8376 21.0544 86.8376 17.4954C86.8376 13.9365 85.0235 11.5488 82.302 11.5488C79.5632 11.5488 77.7488 13.9365 77.7488 17.4954ZM80.4017 17.4728C80.4017 15.7836 81.1547 14.6573 82.302 14.6573C83.4312 14.6573 84.1842 15.7836 84.1842 17.4728C84.1842 19.1848 83.4312 20.3111 82.302 20.3111C81.1547 20.3111 80.4017 19.1848 80.4017 17.4728Z" fill="white"/>
<path d="M89.1099 10.1293C89.9311 10.1293 90.5988 9.25087 90.5988 8.14715C90.5988 7.04344 89.9311 6.1875 89.1099 6.1875C88.2714 6.1875 87.6038 7.04344 87.6038 8.14715C87.6038 9.25087 88.2714 10.1293 89.1099 10.1293ZM87.7746 23.1487H90.4279V11.8863H87.7746V23.1487Z" fill="white"/>
<path d="M91.9727 28.5541H94.5743V22.022C95.0703 22.8779 96.2003 23.4636 97.3812 23.4636C99.9312 23.4636 101.472 20.8957 101.404 17.3368C101.335 13.7103 99.7431 11.5254 97.364 11.5254C96.1486 11.5254 95.0022 12.2236 94.5226 13.2598L94.3854 11.8858H91.9727V28.5541ZM94.6252 17.517C94.6252 15.8277 95.481 14.7014 96.7136 14.7014C97.9627 14.7014 98.7502 15.8501 98.7502 17.517C98.7502 19.1839 97.9627 20.3326 96.7136 20.3326C95.481 20.3326 94.6252 19.2063 94.6252 17.517Z" fill="white"/>
<path d="M101.684 19.5892C101.752 21.8643 103.122 23.441 105.279 23.441C107.35 23.441 108.788 21.9994 108.788 19.6794C108.788 18.0126 108.035 16.9088 106.63 16.4583L105.108 15.9628C104.56 15.7826 104.218 15.6023 104.218 15.0167C104.218 14.431 104.576 14.0481 105.108 14.0481C105.706 14.0481 106.1 14.5662 106.083 15.332H108.462C108.393 12.9895 107.042 11.5254 105.159 11.5254C103.259 11.5254 101.838 13.012 101.838 15.2645C101.838 16.7736 102.472 18.0126 104.166 18.5982L105.672 19.1162C106.117 19.2739 106.305 19.5442 106.305 19.9271C106.305 20.4903 105.912 20.8507 105.244 20.8507C104.474 20.8507 104.063 20.3776 104.063 19.5892H101.684Z" fill="white"/>
<path d="M112.822 23.4419C113.866 23.4419 114.91 22.8112 115.441 21.8877L115.612 23.1491H118.094V11.8867H115.458V17.7432C115.458 19.4325 115.082 20.356 113.866 20.356C112.924 20.356 112.308 19.7929 112.308 17.6981V11.8867H109.672V18.9594C109.672 21.64 110.802 23.4419 112.822 23.4419Z" fill="white"/>
<path d="M122.274 23.1482V16.999C122.274 15.1068 123.044 14.5663 123.797 14.5663C124.636 14.5663 125.183 15.242 125.183 16.6386V23.1482H127.785V16.999C127.785 15.0844 128.538 14.5438 129.291 14.5438C130.13 14.5438 130.695 15.2195 130.695 16.6386V23.1482H133.263V15.7826C133.263 13.2148 132.235 11.5029 130.027 11.5029C128.795 11.5029 127.785 12.2912 127.34 13.5076C126.827 12.2912 125.936 11.5029 124.516 11.5029C123.575 11.5029 122.702 12.066 122.188 12.967L122.086 11.8858H119.62V23.1482H122.274Z" fill="white"/>
<path d="M0 16.5C0 7.3873 5.61346 0 12.538 0H28.9942C35.9187 0 41.5322 7.3873 41.5322 16.5V33H12.538C5.61346 33 0 25.6127 0 16.5Z" fill="white"/>
<path d="M28.9941 6.1875H12.5379C8.21007 6.1875 4.70166 10.8046 4.70166 16.5C4.70166 22.1954 8.21007 26.8125 12.5379 26.8125H28.9941C33.3219 26.8125 36.8303 22.1954 36.8303 16.5C36.8303 10.8046 33.3219 6.1875 28.9941 6.1875Z" fill="white"/>
<path d="M12.538 21.6562C14.7019 21.6562 16.4561 19.3477 16.4561 16.5C16.4561 13.6523 14.7019 11.3438 12.538 11.3438C10.3741 11.3438 8.61987 13.6523 8.61987 16.5C8.61987 19.3477 10.3741 21.6562 12.538 21.6562Z" fill="white"/>
<path d="M10.9709 15.4688C11.4037 15.4688 11.7545 15.007 11.7545 14.4375C11.7545 13.868 11.4037 13.4062 10.9709 13.4062C10.5381 13.4062 10.1873 13.868 10.1873 14.4375C10.1873 15.007 10.5381 15.4688 10.9709 15.4688Z" fill="white"/>
<path d="M29.7777 21.6562C31.9417 21.6562 33.6959 19.3477 33.6959 16.5C33.6959 13.6523 31.9417 11.3438 29.7777 11.3438C27.6138 11.3438 25.8596 13.6523 25.8596 16.5C25.8596 19.3477 27.6138 21.6562 29.7777 21.6562Z" fill="white"/>
<path d="M28.2106 15.4688C28.6434 15.4688 28.9943 15.007 28.9943 14.4375C28.9943 13.868 28.6434 13.4062 28.2106 13.4062C27.7778 13.4062 27.427 13.868 27.427 14.4375C27.427 15.007 27.7778 15.4688 28.2106 15.4688Z" fill="white"/>
</g>
<defs>
<clipPath id="clip0_2028_361">
<rect width="134" height="33" fill="white"/>
</clipPath>
</defs>
</svg>
