<svg width="153" height="29" viewBox="0 0 153 29" fill="none" xmlns="http://www.w3.org/2000/svg">
<g clip-path="url(#clip0_2028_503)">
<path d="M23.0022 22.2273H30.9453L11.2685 0.95459H3.3252L23.0022 22.2273Z" fill="white"/>
<path d="M15.3494 0.954591L34.3176 21.461V0.95459H29.1844V7.42885L23.1958 0.95459L15.3494 0.954591Z" fill="white"/>
<path d="M0 1.66699V22.2274H5.13312V15.7531L11.1217 22.2274H19.0182L0 1.66699Z" fill="white"/>
<path d="M46.7047 19.0285H51.3039V21.9586H43.1936V6.37598H46.7047V19.0285Z" fill="white"/>
<path d="M57.5777 22.1364C56.4552 22.1364 55.4422 21.8775 54.5388 21.3594C53.649 20.8415 52.9441 20.1016 52.4239 19.1398C51.9176 18.1778 51.6643 17.0532 51.6643 15.7657C51.6643 14.4931 51.9243 13.3757 52.4445 12.4139C52.9647 11.4371 53.6765 10.6899 54.5798 10.1719C55.4833 9.65399 56.4962 9.39502 57.6187 9.39502C58.7412 9.39502 59.754 9.65399 60.6575 10.1719C61.5609 10.6899 62.2727 11.4371 62.7929 12.4139C63.3131 13.3757 63.5731 14.4931 63.5731 15.7657C63.5731 17.0383 63.3062 18.163 62.7723 19.1398C62.2522 20.1016 61.5335 20.8415 60.6164 21.3594C59.713 21.8775 58.7 22.1364 57.5777 22.1364ZM57.5777 18.8512C58.2484 18.8512 58.8165 18.5848 59.2818 18.052C59.7609 17.5193 60.0004 16.7572 60.0004 15.7657C60.0004 14.7742 59.7677 14.0121 59.3024 13.4794C58.8506 12.9466 58.2894 12.6803 57.6187 12.6803C56.9343 12.6803 56.3662 12.9466 55.9145 13.4794C55.4628 13.9973 55.237 14.7595 55.237 15.7657C55.237 16.7572 55.4559 17.5193 55.894 18.052C56.3457 18.5848 56.9069 18.8512 57.5777 18.8512Z" fill="white"/>
<path d="M69.1728 9.39502C69.9804 9.39502 70.6854 9.5726 71.2877 9.92776C71.9037 10.2829 72.3759 10.7491 72.7044 11.3262V9.5726H76.2155V21.9366C76.2155 23.0761 76.0033 24.1046 75.5789 25.022C75.1683 25.9543 74.5318 26.6943 73.6694 27.2418C72.8208 27.7894 71.7599 28.0632 70.4869 28.0632C68.7895 28.0632 67.4139 27.6266 66.3599 26.7534C65.3059 25.8951 64.7036 24.7261 64.553 23.2463H68.023C68.1325 23.7198 68.3926 24.0897 68.8032 24.3561C69.2139 24.6373 69.7203 24.7779 70.3227 24.7779C71.0482 24.7779 71.623 24.5486 72.0474 24.0897C72.4854 23.6458 72.7044 22.9281 72.7044 21.9366V20.183C72.3622 20.7601 71.89 21.2337 71.2877 21.6037C70.6854 21.9588 69.9804 22.1364 69.1728 22.1364C68.2284 22.1364 67.3728 21.8775 66.6063 21.3594C65.8397 20.8267 65.2306 20.0795 64.7789 19.1175C64.3409 18.1409 64.1218 17.0162 64.1218 15.7435C64.1218 14.4709 64.3409 13.3536 64.7789 12.3917C65.2306 11.4298 65.8397 10.6899 66.6063 10.1719C67.3728 9.65399 68.2284 9.39502 69.1728 9.39502ZM72.7044 15.7657C72.7044 14.8187 72.458 14.0713 71.9653 13.5237C71.4862 12.9762 70.8975 12.7024 70.1995 12.7024C69.5014 12.7024 68.906 12.9762 68.4132 13.5237C67.934 14.0565 67.6945 14.7964 67.6945 15.7435C67.6945 16.6907 67.934 17.4453 68.4132 18.0077C68.906 18.5552 69.5014 18.8289 70.1995 18.8289C70.8975 18.8289 71.4862 18.5552 71.9653 18.0077C72.458 17.4601 72.7044 16.7128 72.7044 15.7657Z" fill="white"/>
<path d="M83.3548 22.1364C82.2323 22.1364 81.2194 21.8775 80.3159 21.3594C79.4262 20.8415 78.7212 20.1016 78.2011 19.1398C77.6947 18.1778 77.4414 17.0532 77.4414 15.7657C77.4414 14.4931 77.7015 13.3757 78.2216 12.4139C78.7418 11.4371 79.4536 10.6899 80.357 10.1719C81.2604 9.65399 82.2734 9.39502 83.3958 9.39502C84.5183 9.39502 85.5312 9.65399 86.4346 10.1719C87.338 10.6899 88.0499 11.4371 88.57 12.4139C89.0902 13.3757 89.3503 14.4931 89.3503 15.7657C89.3503 17.0383 89.0833 18.163 88.5495 19.1398C88.0293 20.1016 87.3107 20.8415 86.3936 21.3594C85.4901 21.8775 84.4772 22.1364 83.3548 22.1364ZM83.3548 18.8512C84.0255 18.8512 84.5936 18.5848 85.0589 18.052C85.5381 17.5193 85.7776 16.7572 85.7776 15.7657C85.7776 14.7742 85.5449 14.0121 85.0795 13.4794C84.6277 12.9466 84.0666 12.6803 83.3958 12.6803C82.7115 12.6803 82.1434 12.9466 81.6916 13.4794C81.2399 13.9973 81.0141 14.7595 81.0141 15.7657C81.0141 16.7572 81.2331 17.5193 81.6711 18.052C82.1228 18.5848 82.684 18.8512 83.3548 18.8512Z" fill="white"/>
<path d="M92.3629 8.28526C91.7469 8.28526 91.2404 8.09287 90.8434 7.70812C90.4602 7.30856 90.2686 6.82022 90.2686 6.24308C90.2686 5.65115 90.4602 5.1628 90.8434 4.77804C91.2404 4.37849 91.7469 4.17871 92.3629 4.17871C92.9651 4.17871 93.4579 4.37849 93.8412 4.77804C94.2381 5.1628 94.4366 5.65115 94.4366 6.24308C94.4366 6.82022 94.2381 7.30856 93.8412 7.70812C93.4579 8.09287 92.9651 8.28526 92.3629 8.28526ZM94.1081 9.57271V21.9589H90.597V9.57271H94.1081Z" fill="white"/>
<path d="M99.5475 11.3262C99.8902 10.7491 100.362 10.2829 100.964 9.92776C101.566 9.5726 102.272 9.39502 103.079 9.39502C104.024 9.39502 104.88 9.65399 105.646 10.1719C106.413 10.6899 107.015 11.4298 107.453 12.3917C107.905 13.3536 108.13 14.4709 108.13 15.7435C108.13 17.0162 107.905 18.1409 107.453 19.1175C107.015 20.0795 106.413 20.8267 105.646 21.3594C104.88 21.8775 104.024 22.1364 103.079 22.1364C102.286 22.1364 101.58 21.9588 100.964 21.6037C100.362 21.2485 99.8902 20.7898 99.5475 20.2274V27.8634H96.0366V9.5726H99.5475V11.3262ZM104.558 15.7435C104.558 14.7964 104.311 14.0565 103.819 13.5237C103.34 12.9762 102.744 12.7024 102.032 12.7024C101.334 12.7024 100.739 12.9762 100.246 13.5237C99.767 14.0713 99.5276 14.8187 99.5276 15.7657C99.5276 16.7128 99.767 17.4601 100.246 18.0077C100.739 18.5552 101.334 18.8289 102.032 18.8289C102.731 18.8289 103.326 18.5552 103.819 18.0077C104.311 17.4453 104.558 16.6907 104.558 15.7435Z" fill="white"/>
<path d="M114.017 22.1364C113.017 22.1364 112.128 21.9515 111.348 21.5815C110.567 21.2115 109.951 20.7083 109.5 20.0721C109.048 19.421 108.795 18.6957 108.74 17.8966H112.211C112.251 18.3258 112.436 18.6736 112.765 18.94C113.093 19.2064 113.497 19.3395 113.976 19.3395C114.414 19.3395 114.749 19.2507 114.982 19.0732C115.229 18.8808 115.352 18.6366 115.352 18.3406C115.352 17.9855 115.18 17.7265 114.838 17.5637C114.496 17.3861 113.941 17.1938 113.175 16.9866C112.354 16.7794 111.669 16.5648 111.122 16.3429C110.574 16.106 110.102 15.7435 109.705 15.2552C109.309 14.7521 109.11 14.0787 109.11 13.2351C109.11 12.5249 109.288 11.8812 109.643 11.304C110.013 10.7121 110.547 10.2459 111.245 9.90556C111.957 9.5652 112.799 9.39502 113.77 9.39502C115.208 9.39502 116.338 9.77977 117.158 10.5493C117.994 11.3188 118.473 12.3399 118.596 13.6126H115.352C115.296 13.1834 115.119 12.843 114.818 12.5915C114.53 12.3399 114.147 12.2141 113.668 12.2141C113.258 12.2141 112.943 12.3028 112.723 12.4805C112.505 12.6432 112.395 12.8726 112.395 13.1686C112.395 13.5237 112.566 13.7901 112.908 13.9677C113.264 14.1453 113.812 14.3229 114.551 14.5004C115.4 14.7372 116.091 14.974 116.625 15.2108C117.158 15.4327 117.624 15.8027 118.021 16.3206C118.432 16.8238 118.644 17.5045 118.657 18.3628C118.657 19.088 118.466 19.7391 118.082 20.3162C117.713 20.8786 117.172 21.3225 116.461 21.648C115.762 21.9736 114.948 22.1364 114.017 22.1364Z" fill="white"/>
<path d="M131.503 9.57275V21.9589H127.991V20.272C127.636 20.8196 127.15 21.2635 126.534 21.6038C125.932 21.9294 125.261 22.0921 124.522 22.0921C123.646 22.0921 122.872 21.885 122.201 21.4707C121.531 21.0415 121.011 20.4273 120.642 19.6282C120.272 18.8291 120.087 17.8895 120.087 16.8092V9.57275H123.577V16.2986C123.577 17.1273 123.776 17.771 124.172 18.2297C124.57 18.6886 125.103 18.9179 125.774 18.9179C126.459 18.9179 126.999 18.6886 127.396 18.2297C127.794 17.771 127.991 17.1273 127.991 16.2986V9.57275H131.503Z" fill="white"/>
<path d="M148.028 9.43945C149.451 9.43945 150.581 9.9056 151.415 10.8379C152.265 11.7702 152.689 13.0651 152.689 14.7225V21.9588H149.198V15.233C149.198 14.4339 149 13.8198 148.603 13.3906C148.219 12.9467 147.686 12.7247 147.001 12.7247C146.317 12.7247 145.776 12.9467 145.379 13.3906C144.996 13.8198 144.805 14.4339 144.805 15.233V21.9588H141.314V15.233C141.314 14.4339 141.116 13.8198 140.718 13.3906C140.335 12.9467 139.801 12.7247 139.117 12.7247C138.432 12.7247 137.892 12.9467 137.494 13.3906C137.112 13.8198 136.92 14.4339 136.92 15.233V21.9588H133.409V9.57264H136.92V11.1265C137.276 10.6085 137.741 10.2016 138.316 9.9056C138.891 9.59484 139.541 9.43945 140.266 9.43945C141.129 9.43945 141.896 9.63923 142.566 10.0388C143.251 10.4383 143.784 11.0081 144.168 11.748C144.565 11.0673 145.106 10.5123 145.79 10.0832C146.475 9.65403 147.221 9.43945 148.028 9.43945Z" fill="white"/>
</g>
<defs>
<clipPath id="clip0_2028_503">
<rect width="153" height="29" fill="white"/>
</clipPath>
</defs>
</svg>
