<svg width="140" height="33" viewBox="0 0 140 33" fill="none" xmlns="http://www.w3.org/2000/svg">
<path d="M21.2942 26.1348L3.09421 12.5223C1.24986 11.1429 1.87682 8.27077 4.17667 7.59537L23.52 1.90287C23.9298 1.74256 24.3688 1.69052 24.8009 1.75107C25.2329 1.81163 25.6454 1.98303 26.0041 2.25106C26.3627 2.51908 26.6573 2.876 26.8633 3.29218C27.0692 3.70837 27.1807 4.17182 27.1884 4.64407L26.042 23.948C25.9061 26.2393 23.1386 27.5142 21.2942 26.1348Z" fill="#F5F5F5"/>
<path d="M15.5217 29.4956L4.79952 6.7597C4.55442 6.23958 4.44657 5.65615 4.48785 5.07378C4.52913 4.4914 4.71795 3.9327 5.03346 3.4593C5.34899 2.98589 5.77896 2.61616 6.27597 2.39088C6.77298 2.1656 7.31772 2.09352 7.8501 2.18261L27.721 5.5079C28.1784 5.58447 28.6126 5.77769 28.9879 6.07166C29.3631 6.36565 29.6685 6.75199 29.8792 7.19893C30.0898 7.64587 30.1997 8.14064 30.1996 8.64257C30.1995 9.14449 30.0895 9.63924 29.8788 10.0861L20.7251 29.4967C20.4792 30.0153 20.1063 30.4505 19.6473 30.7542C19.1882 31.058 18.6609 31.2186 18.1231 31.2185C17.5853 31.2184 17.058 31.0576 16.599 30.7536C16.1401 30.4496 15.7673 30.0143 15.5217 29.4956Z" fill="#C8C8C8"/>
<path d="M27.1398 5.40965L17.2342 3.75195L5.07251 7.33245L9.92686 17.6295L21.2942 26.1347C21.545 26.3203 21.8209 26.4624 22.1119 26.556L26.4296 17.4007L27.1398 5.40965Z" fill="white"/>
<path d="M77.3135 8.06733C77.3135 7.6681 77.4226 7.27786 77.6272 6.94591C77.8318 6.61397 78.1225 6.35525 78.4627 6.20247C78.8029 6.04971 79.1771 6.00973 79.5383 6.08761C79.8993 6.1655 80.2311 6.35775 80.4914 6.64003C80.7518 6.92232 80.929 7.28199 81.0009 7.67354C81.0727 8.06509 81.0359 8.47095 80.8949 8.83978C80.754 9.20861 80.5154 9.52386 80.2093 9.74565C79.9032 9.96744 79.5432 10.0858 79.1751 10.0858C78.6828 10.0804 78.2123 9.86598 77.8642 9.48861C77.5163 9.11124 77.3184 8.60098 77.3135 8.06733ZM77.6239 11.0725H80.7272V22.2859H77.6239V11.0725Z" fill="white"/>
<path d="M94.1287 16.6794C94.1648 17.4206 94.0653 18.1622 93.8361 18.8616C93.6068 19.5609 93.2523 20.2043 92.7931 20.7546C92.3337 21.3048 91.7786 21.7512 91.1595 22.0681C90.5405 22.3849 89.8698 22.566 89.1861 22.6007C88.6109 22.6346 88.036 22.5295 87.5029 22.2928C86.9699 22.0561 86.4921 21.6939 86.104 21.2323V26.7719H83.0017V11.0727H86.104V12.1265C86.4922 11.6651 86.97 11.3031 87.5031 11.0666C88.0361 10.8301 88.611 10.7251 89.1861 10.7592C89.8698 10.7938 90.5404 10.9747 91.1594 11.2914C91.7785 11.6082 92.3336 12.0545 92.793 12.6047C93.2523 13.1549 93.6068 13.7981 93.8361 14.4975C94.0653 15.1967 94.1648 15.9383 94.1287 16.6794ZM91.0263 16.6794C91.0142 16.1544 90.8595 15.645 90.5816 15.2148C90.3037 14.7847 89.915 14.4529 89.4641 14.2612C89.0132 14.0694 88.5201 14.0261 88.0467 14.1367C87.5732 14.2472 87.1402 14.5067 86.8021 14.8827C86.464 15.2587 86.2356 15.7345 86.1456 16.2505C86.0556 16.7666 86.1081 17.2999 86.2963 17.7838C86.4845 18.2677 86.8001 18.6807 87.2036 18.9711C87.6073 19.2615 88.0809 19.4162 88.5652 19.4162C88.8978 19.4325 89.2298 19.3722 89.5394 19.2396C89.849 19.1068 90.1292 18.9045 90.3616 18.6461C90.5941 18.3876 90.7734 18.0789 90.8881 17.7398C91.0026 17.4009 91.0498 17.0395 91.0263 16.6794Z" fill="white"/>
<path d="M103.704 18.9198C103.704 21.4993 101.636 22.5982 99.4021 22.5982C98.4997 22.6867 97.5935 22.4796 96.8007 22.0036C96.008 21.5278 95.3653 20.8049 94.9556 19.9285L97.644 18.2697C97.7533 18.6748 97.9875 19.0269 98.3076 19.2672C98.6275 19.5074 99.0139 19.6213 99.4021 19.5897C100.147 19.5897 100.518 19.3422 100.518 18.8945C100.518 17.6603 95.4304 18.3115 95.4304 14.4307C95.4304 11.9865 97.3325 10.7534 99.4883 10.7534C100.297 10.7259 101.098 10.9339 101.806 11.3559C102.516 11.7778 103.108 12.3982 103.521 13.1525L100.874 14.7002C100.758 14.4058 100.565 14.1549 100.319 13.9789C100.072 13.8028 99.7834 13.7094 99.4883 13.7102C98.9506 13.7102 98.6199 13.9302 98.6199 14.3383C98.6169 15.6253 103.704 14.7728 103.704 18.9198Z" fill="white"/>
<path d="M115.044 11.0728V22.2862H111.941V21.2302C111.583 21.6953 111.128 22.0619 110.613 22.2998C110.1 22.5376 109.541 22.64 108.983 22.5986C106.894 22.5986 105.116 20.9838 105.116 17.9555V11.0728H108.218V17.4649C108.192 17.7322 108.22 18.0024 108.3 18.2567C108.38 18.5111 108.51 18.7435 108.682 18.9378C108.853 19.132 109.061 19.2834 109.291 19.3814C109.523 19.4795 109.77 19.5217 110.018 19.5054C111.155 19.5054 111.945 18.7882 111.945 17.1954V11.0728H115.044Z" fill="white"/>
<path d="M132.826 15.4001V22.2861H129.723V15.6927C129.723 14.5718 129.226 13.8535 128.234 13.8535C127.199 13.8535 126.621 14.6389 126.621 15.9622V22.2861H123.518V15.6927C123.518 14.5718 123.022 13.8535 122.028 13.8535C120.995 13.8535 120.415 14.6389 120.415 15.9622V22.2861H117.313V11.0727H120.42V12.1001C120.742 11.6426 121.164 11.2799 121.648 11.0448C122.132 10.8098 122.663 10.7101 123.192 10.7548C123.723 10.7267 124.252 10.8482 124.727 11.1075C125.202 11.3668 125.606 11.7549 125.902 12.2343C126.246 11.7328 126.701 11.334 127.226 11.0753C127.75 10.8165 128.327 10.7063 128.902 10.7548C131.275 10.7592 132.826 12.5973 132.826 15.4001Z" fill="white"/>
<path d="M135.454 11.0033C136.726 11.0033 137.757 9.88534 137.757 8.50628C137.757 7.12723 136.726 6.00928 135.454 6.00928C134.182 6.00928 133.151 7.12723 133.151 8.50628C133.151 9.88534 134.182 11.0033 135.454 11.0033Z" fill="white"/>
<path d="M34.9563 5.91455H38.0596V22.2859H34.9563V5.91455ZM39.8167 16.6792C39.8134 15.5035 40.1317 14.3533 40.7316 13.374C41.3315 12.3947 42.1859 11.6304 43.1866 11.178C44.1874 10.7255 45.2893 10.6052 46.3532 10.8323C47.417 11.0594 48.3948 11.6236 49.1626 12.4537C49.9305 13.2836 50.454 14.3419 50.6667 15.4947C50.8795 16.6475 50.772 17.8428 50.3579 18.9293C49.9438 20.0157 49.2417 20.9446 48.3404 21.5981C47.4391 22.2516 46.3793 22.6005 45.295 22.6005C44.5749 22.6088 43.8605 22.4615 43.1935 22.1671C42.5265 21.8727 41.9203 21.4371 41.4103 20.8859C40.9002 20.3346 40.4966 19.6787 40.223 18.9564C39.9494 18.2342 39.8114 17.46 39.8167 16.6792ZM47.677 16.6792C47.6648 16.172 47.5151 15.6801 47.2464 15.2648C46.9777 14.8496 46.6021 14.5294 46.1664 14.3443C45.7307 14.1594 45.2545 14.1177 44.7972 14.2248C44.3398 14.3317 43.9218 14.5826 43.5952 14.9458C43.2686 15.3092 43.0482 15.7687 42.9613 16.2671C42.8744 16.7657 42.9249 17.2808 43.1067 17.7483C43.2884 18.2157 43.5933 18.6147 43.9831 18.8953C44.3728 19.1759 44.8303 19.3256 45.298 19.3258C45.6184 19.3357 45.9373 19.2734 46.2343 19.1431C46.5315 19.0129 46.8004 18.8172 47.0243 18.5685C47.2482 18.3199 47.4222 18.0236 47.5352 17.6985C47.6482 17.3732 47.6979 17.0261 47.6811 16.6792H47.677ZM63.147 11.0692V21.7227C63.147 25.4902 60.4373 27.0819 57.687 27.0819C56.719 27.1611 55.7494 26.9498 54.8847 26.4711C54.02 25.9925 53.2936 25.2648 52.785 24.3682L55.4318 22.7083C55.6455 23.1762 55.9858 23.5623 56.4073 23.815C56.8289 24.0676 57.3114 24.1746 57.7905 24.1218C58.0964 24.167 58.4076 24.1373 58.7014 24.0347C58.9952 23.9321 59.2639 23.7594 59.4879 23.529C59.7118 23.2988 59.8852 23.017 59.9953 22.7042C60.1054 22.3916 60.1493 22.0561 60.1238 21.7227V20.6909C59.7604 21.1727 59.2979 21.5555 58.7735 21.8086C58.249 22.0617 57.6772 22.1781 57.1037 22.1484C55.7387 22.1023 54.4437 21.482 53.4931 20.4188C52.5425 19.3555 52.0109 17.9329 52.0109 16.4521C52.0109 14.9711 52.5425 13.5485 53.4931 12.4852C54.4437 11.422 55.7387 10.8017 57.1037 10.7557C57.6772 10.7259 58.249 10.8422 58.7735 11.0954C59.2979 11.3485 59.7604 11.7313 60.1238 12.2132V11.0692H63.147ZM60.1279 16.4515C60.1484 15.9099 60.0189 15.3741 59.7563 14.9128C59.4936 14.4516 59.1097 14.0861 58.6539 13.8633C58.1982 13.6406 57.6914 13.5707 57.1987 13.6628C56.7061 13.7549 56.2501 14.0046 55.8893 14.3799C55.5286 14.7552 55.2796 15.2389 55.1745 15.7687C55.0693 16.2987 55.1127 16.8506 55.2992 17.3536C55.4856 17.8565 55.8066 18.2875 56.2207 18.5911C56.6348 18.8947 57.1233 19.0571 57.6231 19.0574C57.9491 19.0822 58.2762 19.0328 58.5835 18.9123C58.8908 18.7919 59.1714 18.603 59.4074 18.3578C59.6433 18.1127 59.8293 17.8167 59.9534 17.489C60.0775 17.1612 60.1369 16.8089 60.1279 16.4548V16.4515ZM64.9041 16.6715C64.9008 15.4958 65.2191 14.3456 65.819 13.3663C66.4189 12.387 67.2733 11.6227 68.274 11.1703C69.2748 10.7178 70.3767 10.5975 71.4406 10.8246C72.5044 11.0517 73.4821 11.6159 74.25 12.446C75.0179 13.2759 75.5414 14.3342 75.7541 15.487C75.9669 16.6398 75.8594 17.8351 75.4453 18.9216C75.0312 20.008 74.3291 20.9369 73.4278 21.5904C72.5265 22.2439 71.4667 22.5928 70.3824 22.5928C69.6629 22.6011 68.9491 22.454 68.2826 22.1601C67.6161 21.8663 67.0101 21.4313 66.5002 20.8809C65.9902 20.3304 65.5866 19.6755 65.3126 18.954C65.0384 18.2326 64.8997 17.4593 64.9041 16.6792V16.6715ZM72.7644 16.6715C72.7524 16.1641 72.6027 15.6717 72.3341 15.256C72.0653 14.8404 71.6895 14.52 71.2536 14.3348C70.8177 14.1495 70.3412 14.1078 69.8836 14.2149C69.4259 14.3218 69.0075 14.5728 68.6809 14.9363C68.3541 15.2998 68.1335 15.7597 68.0466 16.2585C67.9597 16.7572 68.0104 17.2728 68.1923 17.7404C68.3743 18.2081 68.6794 18.6072 69.0694 18.8879C69.4596 19.1685 69.9173 19.3181 70.3854 19.3181C70.7049 19.3272 71.0225 19.2649 71.3187 19.1347C71.6148 19.0046 71.8829 18.8095 72.1063 18.5617C72.3296 18.314 72.5034 18.0189 72.6166 17.6949C72.7299 17.371 72.7802 17.0252 72.7644 16.6792V16.6715Z" fill="white"/>
</svg>
