<svg width="149" height="39" viewBox="0 0 149 39" fill="none" xmlns="http://www.w3.org/2000/svg">
<g clip-path="url(#clip0_2028_390)">
<path d="M44.9431 27.8932H55.4187V24.4688H48.6664V11.5703H44.9431V27.8932Z" fill="white"/>
<path d="M61.6252 25.61C60.1317 25.61 59.3534 24.1946 59.3534 22.0715C59.3534 19.9484 60.1317 18.5101 61.6252 18.5101C63.1187 18.5101 63.9181 19.9484 63.9181 22.0715C63.9181 24.1946 63.1187 25.61 61.6252 25.61ZM61.6462 28.2582C65.1171 28.2582 67.3889 25.5872 67.3889 22.0715C67.3889 18.5558 65.1171 15.8848 61.6462 15.8848C58.1965 15.8848 55.8826 18.5558 55.8826 22.0715C55.8826 25.5872 58.1965 28.2582 61.6462 28.2582Z" fill="white"/>
<path d="M73.3965 31.9331C74.9951 31.9331 76.4045 31.545 77.3511 30.6319C78.2135 29.7872 78.7815 28.5087 78.7815 26.7509V16.2038H75.5V17.4594H75.4579C74.8269 16.4777 73.8592 15.8613 72.4288 15.8613C69.7574 15.8613 67.9062 18.2812 67.9062 21.7056C67.9062 25.2898 70.157 27.2531 72.5761 27.2531C73.8803 27.2531 74.7006 26.6824 75.3317 25.9062H75.4159V27.0705C75.4159 28.4859 74.8058 29.3078 73.3544 29.3078C72.2185 29.3078 71.6505 28.7827 71.4612 28.1663H68.1376C68.4742 30.609 70.4305 31.9331 73.3965 31.9331ZM73.3754 24.4908C72.0923 24.4908 71.2509 23.3493 71.2509 21.5915C71.2509 19.8108 72.0923 18.6693 73.3754 18.6693C74.8058 18.6693 75.5631 19.9934 75.5631 21.5686C75.5631 23.2124 74.8689 24.4908 73.3754 24.4908Z" fill="white"/>
<path d="M85.529 25.61C84.0355 25.61 83.2572 24.1946 83.2572 22.0715C83.2572 19.9484 84.0355 18.5101 85.529 18.5101C87.0225 18.5101 87.8215 19.9484 87.8215 22.0715C87.8215 24.1946 87.0225 25.61 85.529 25.61ZM85.55 28.2582C89.0205 28.2582 91.2923 25.5872 91.2923 22.0715C91.2923 18.5558 89.0205 15.8848 85.55 15.8848C82.1003 15.8848 79.7864 18.5558 79.7864 22.0715C79.7864 25.5872 82.1003 28.2582 85.55 28.2582Z" fill="white"/>
<path d="M92.2942 27.8932H95.7229V16.2047H92.2942V27.8932ZM92.2942 14.5838H95.7229V11.5703H92.2942V14.5838Z" fill="white"/>
<path d="M97.2102 31.7505H100.639V26.6824H100.681C101.354 27.6641 102.343 28.2576 103.731 28.2576C106.55 28.2576 108.422 25.8377 108.422 22.0481C108.422 18.5324 106.676 15.8613 103.815 15.8613C102.343 15.8613 101.291 16.569 100.555 17.6192H100.492V16.2038H97.2102V31.7505ZM102.848 25.3811C101.375 25.3811 100.534 24.0799 100.534 22.185C100.534 20.2902 101.291 18.852 102.785 18.852C104.257 18.852 104.951 20.1761 104.951 22.185C104.951 24.1712 104.152 25.3811 102.848 25.3811Z" fill="white"/>
<path d="M114.004 28.2576C116.823 28.2576 118.906 26.9335 118.906 24.3766C118.906 21.386 116.676 20.8609 114.783 20.5185C113.415 20.2445 112.195 20.1304 112.195 19.3085C112.195 18.578 112.847 18.2356 113.689 18.2356C114.635 18.2356 115.288 18.5552 115.414 19.6053H118.569C118.401 17.2996 116.76 15.8613 113.71 15.8613C111.165 15.8613 109.061 17.1398 109.061 19.6053C109.061 22.3448 111.059 22.8927 112.932 23.2352C114.362 23.5091 115.666 23.6233 115.666 24.6734C115.666 25.4268 115.014 25.8377 113.983 25.8377C112.847 25.8377 112.132 25.267 112.006 24.1027H108.767C108.872 26.6824 110.849 28.2576 114.004 28.2576Z" fill="white"/>
<path d="M123.563 28.2351C125.056 28.2351 126.003 27.5959 126.781 26.4544H126.844V27.8927H130.126V16.2041H126.697V22.7333C126.697 24.1259 125.982 25.0847 124.804 25.0847C123.71 25.0847 123.184 24.377 123.184 23.0985V16.2041H119.777V23.8747C119.777 26.4773 121.081 28.2351 123.563 28.2351Z" fill="white"/>
<path d="M131.618 27.8924H135.047V21.3404C135.047 19.9478 135.678 18.9661 136.751 18.9661C137.781 18.9661 138.265 19.6966 138.265 20.9523V27.8924H141.694V21.3404C141.694 19.9478 142.304 18.9661 143.398 18.9661C144.428 18.9661 144.912 19.6966 144.912 20.9523V27.8924H148.341V20.2902C148.341 17.6648 147.121 15.8613 144.681 15.8613C143.293 15.8613 142.136 16.5005 141.294 17.916H141.252C140.705 16.6604 139.632 15.8613 138.223 15.8613C136.666 15.8613 135.636 16.6604 134.963 17.8703H134.899V16.2038H131.618V27.8924Z" fill="white"/>
<path fill-rule="evenodd" clip-rule="evenodd" d="M17.6182 38.3564C27.2996 38.3564 35.1477 29.8389 35.1477 19.332C35.1477 8.82512 27.2996 0.307617 17.6182 0.307617C7.93704 0.307617 0.0888672 8.82512 0.0888672 19.332C0.0888672 29.8389 7.93704 38.3564 17.6182 38.3564ZM20.3239 15.0064C21.8181 13.3847 21.8181 10.7554 20.3239 9.13366C18.8296 7.51194 16.407 7.51194 14.9127 9.13366C13.4185 10.7554 13.4185 13.3847 14.9127 15.0064L17.6182 17.9427L20.3239 15.0064ZM21.604 22.2684C23.0983 23.8901 25.5209 23.8901 27.0152 22.2684C28.5094 20.6466 28.5094 18.0174 27.0152 16.3956C25.5209 14.774 23.0983 14.774 21.604 16.3956L18.8984 19.3321L21.604 22.2684ZM20.3239 29.5304C21.8181 27.9086 21.8181 25.2794 20.3239 23.6576L17.6182 20.7213L14.9127 23.6576C13.4185 25.2794 13.4185 27.9086 14.9127 29.5304C16.407 31.1521 18.8296 31.1521 20.3239 29.5304ZM8.22131 22.2684C6.72707 20.6466 6.72707 18.0174 8.22131 16.3956C9.71563 14.774 12.1383 14.774 13.6326 16.3956L16.3382 19.3321L13.6326 22.2684C12.1383 23.8901 9.71563 23.8901 8.22131 22.2684Z" fill="white"/>
</g>
<defs>
<clipPath id="clip0_2028_390">
<rect width="149" height="39" fill="white"/>
</clipPath>
</defs>
</svg>
