<svg width="130" height="30" viewBox="0 0 130 30" fill="none" xmlns="http://www.w3.org/2000/svg">
<g clip-path="url(#clip0_2028_448)">
<path d="M37.0625 21.7499H45.643V19.3253H39.679V8.00439H37.0625V21.7499Z" fill="white"/>
<path d="M50.7993 22.0361C51.8383 22.0361 52.7521 21.807 53.5409 21.3488C54.3361 20.8843 54.955 20.2447 55.3975 19.4302C55.8464 18.6093 56.0708 17.6643 56.0708 16.5952C56.0708 15.5325 55.8495 14.5939 55.4071 13.7793C54.9646 12.9584 54.3457 12.3157 53.5505 11.8511C52.7617 11.3866 51.8447 11.1543 50.7993 11.1543C49.7733 11.1543 48.8658 11.3834 48.0771 11.8416C47.2883 12.2998 46.6694 12.9393 46.2205 13.7602C45.7716 14.5747 45.5471 15.5197 45.5471 16.5952C45.5471 17.6579 45.7652 18.5998 46.2013 19.4206C46.6437 20.2352 47.2594 20.8747 48.0482 21.3393C48.837 21.8038 49.7541 22.0361 50.7993 22.0361ZM50.7993 19.6116C49.9849 19.6116 49.3661 19.3411 48.9428 18.8002C48.5259 18.253 48.3176 17.518 48.3176 16.5952C48.3176 15.6979 48.5163 14.9725 48.914 14.4188C49.3179 13.8589 49.9464 13.5788 50.7993 13.5788C51.6267 13.5788 52.2487 13.8525 52.6655 14.3998C53.0888 14.947 53.3004 15.6788 53.3004 16.5952C53.3004 17.4798 53.092 18.2052 52.6751 18.7716C52.2647 19.3315 51.6394 19.6116 50.7993 19.6116Z" fill="white"/>
<path d="M61.245 22.0361C61.7324 22.0361 62.1813 21.9788 62.5918 21.8643C63.0086 21.7498 63.387 21.5875 63.7269 21.3775V22.4179C63.7397 22.7998 63.6403 23.1179 63.4286 23.3725C63.2234 23.6334 62.9477 23.8275 62.6014 23.9548C62.2551 24.0884 61.8863 24.1552 61.4952 24.1552C61.1296 24.1552 60.7897 24.0757 60.4755 23.9166C60.1677 23.7575 59.9303 23.5252 59.7636 23.2198L57.3396 24.3843C57.7371 25.0525 58.3047 25.5902 59.0422 25.9975C59.7797 26.4111 60.5909 26.6179 61.4759 26.6179C62.2391 26.6179 62.9477 26.5161 63.6018 26.3125C64.2559 26.1152 64.8075 25.813 65.2563 25.4056C65.7116 24.9984 66.0227 24.4798 66.1895 23.8498C66.2471 23.627 66.2856 23.4011 66.3049 23.172C66.3305 22.9493 66.3434 22.7107 66.3434 22.4561V11.4406H64.0539V12.0134C63.7012 11.7397 63.3004 11.5297 62.8515 11.3834C62.409 11.2306 61.9184 11.1543 61.3797 11.1543C60.3857 11.1543 59.5199 11.3898 58.7825 11.8606C58.045 12.3316 57.471 12.9775 57.0606 13.7984C56.6565 14.6129 56.4546 15.5452 56.4546 16.5952C56.4546 17.6261 56.6534 18.552 57.051 19.3729C57.455 20.1938 58.0161 20.8429 58.7343 21.3202C59.4526 21.7975 60.2895 22.0361 61.245 22.0361ZM61.6683 19.7261C61.104 19.7261 60.6423 19.5861 60.2831 19.3061C59.924 19.0261 59.6578 18.6507 59.4847 18.1798C59.3116 17.7025 59.2249 17.1743 59.2249 16.5952C59.2249 16.0225 59.3147 15.5007 59.4943 15.0298C59.6739 14.5525 59.9496 14.1739 60.3216 13.8938C60.6999 13.6075 61.1809 13.4643 61.7645 13.4643C62.5854 13.4643 63.1721 13.7539 63.5249 14.3329C63.8776 14.9056 64.0539 15.6598 64.0539 16.5952C64.0539 17.5306 63.8743 18.2879 63.5152 18.867C63.1625 19.4398 62.5469 19.7261 61.6683 19.7261Z" fill="white"/>
<path d="M72.5579 22.0361C73.5968 22.0361 74.5107 21.807 75.2995 21.3488C76.0945 20.8843 76.7135 20.2447 77.1557 19.4302C77.6046 18.6093 77.8291 17.6643 77.8291 16.5952C77.8291 15.5325 77.6084 14.5939 77.1655 13.7793C76.7233 12.9584 76.1043 12.3157 75.3091 11.8511C74.5203 11.3866 73.6032 11.1543 72.5579 11.1543C71.5318 11.1543 70.6244 11.3834 69.8356 11.8416C69.0468 12.2998 68.428 12.9393 67.979 13.7602C67.5301 14.5747 67.3057 15.5197 67.3057 16.5952C67.3057 17.6579 67.5237 18.5998 67.9598 19.4206C68.4023 20.2352 69.018 20.8747 69.8067 21.3393C70.5956 21.8038 71.5126 22.0361 72.5579 22.0361ZM72.5579 19.6116C71.7434 19.6116 71.1246 19.3411 70.7013 18.8002C70.2845 18.253 70.0761 17.518 70.0761 16.5952C70.0761 15.6979 70.2749 14.9725 70.6725 14.4188C71.0765 13.8589 71.705 13.5788 72.5579 13.5788C73.3852 13.5788 74.0072 13.8525 74.4241 14.3998C74.8473 14.947 75.059 15.6788 75.059 16.5952C75.059 17.4798 74.8505 18.2052 74.4337 18.7716C74.0233 19.3315 73.398 19.6116 72.5579 19.6116Z" fill="white"/>
<path d="M78.9827 10.0091H81.5993V7.71826H78.9827V10.0091ZM78.9827 21.7501H81.5993V11.441H78.9827V21.7501Z" fill="white"/>
<path d="M83.3096 26.3316H85.9451V21.3775C86.2852 21.5875 86.6601 21.7498 87.0705 21.8643C87.4877 21.9788 87.9397 22.0361 88.4272 22.0361C89.3825 22.0361 90.22 21.7975 90.938 21.3202C91.656 20.8429 92.2138 20.1938 92.6114 19.3729C93.0157 18.552 93.2175 17.6261 93.2175 16.5952C93.2175 15.5452 93.0127 14.6129 92.6023 13.7984C92.1979 12.9775 91.6273 12.3316 90.8896 11.8606C90.152 11.3898 89.2865 11.1543 88.2927 11.1543C87.7538 11.1543 87.2602 11.2306 86.8113 11.3834C86.3684 11.5297 85.9708 11.7397 85.6186 12.0134V11.4406H83.3096V26.3316ZM88.0039 19.7261C87.1317 19.7261 86.5165 19.4398 86.1567 18.867C85.7977 18.2879 85.6186 17.5306 85.6186 16.5952C85.6186 15.6598 85.7947 14.9056 86.1477 14.3329C86.5067 13.7539 87.0932 13.4643 87.9079 13.4643C88.4914 13.4643 88.9691 13.6075 89.341 13.8938C89.7196 14.1739 89.9985 14.5525 90.1777 15.0298C90.3575 15.5007 90.4475 16.0225 90.4475 16.5952C90.4475 17.1743 90.3606 17.7025 90.1875 18.1798C90.0144 18.6507 89.7483 19.0261 89.3893 19.3061C89.0303 19.5861 88.5685 19.7261 88.0039 19.7261Z" fill="white"/>
<path d="M97.958 22.0361C99.3169 22.0361 100.382 21.7339 101.151 21.1293C101.921 20.5247 102.305 19.6943 102.305 18.6379C102.305 17.8361 102.055 17.203 101.556 16.7384C101.061 16.2739 100.222 15.8888 99.035 15.5834C98.227 15.3797 97.6239 15.2143 97.2263 15.087C96.8356 14.9598 96.5756 14.8357 96.4471 14.7148C96.3254 14.5939 96.2649 14.4443 96.2649 14.2661C96.2649 13.967 96.4085 13.738 96.6973 13.5788C96.9928 13.4197 97.3805 13.3561 97.8612 13.3879C98.8808 13.4643 99.4394 13.897 99.5353 14.6861L102.209 14.2088C102.075 13.2734 101.613 12.532 100.824 11.9848C100.036 11.4311 99.0289 11.1543 97.8038 11.1543C96.5469 11.1543 95.5431 11.447 94.7926 12.0325C94.0428 12.6179 93.6672 13.407 93.6672 14.3998C93.6672 15.1888 93.9272 15.8125 94.4465 16.2706C94.9657 16.7225 95.8606 17.1106 97.1303 17.4352C97.8809 17.6325 98.4319 17.7916 98.7848 17.9125C99.1438 18.0334 99.3751 18.1575 99.4771 18.2848C99.5799 18.4057 99.6313 18.568 99.6313 18.7716C99.6313 19.0961 99.5029 19.3507 99.2466 19.5352C98.9904 19.7134 98.6246 19.8025 98.1499 19.8025C97.5725 19.8025 97.0948 19.6657 96.7169 19.392C96.3451 19.1184 96.104 18.7398 95.9951 18.2561L93.321 18.657C93.4941 19.7325 93.9816 20.5661 94.7835 21.1579C95.5915 21.7434 96.6497 22.0361 97.958 22.0361Z" fill="white"/>
<path d="M107.132 22.0555C107.883 22.0555 108.536 21.9314 109.095 21.6832C109.653 21.435 110.12 21.1041 110.499 20.6905V21.75H112.807V11.4409H110.172V16.6719C110.172 17.3082 110.098 17.8236 109.95 18.2182C109.81 18.6064 109.627 18.9023 109.402 19.1059C109.178 19.3032 108.938 19.4368 108.681 19.5069C108.424 19.5768 108.184 19.6119 107.96 19.6119C107.402 19.6119 106.969 19.4877 106.661 19.2396C106.36 18.9914 106.141 18.6828 106.007 18.3137C105.872 17.9445 105.792 17.5787 105.766 17.2159C105.741 16.8468 105.728 16.5446 105.728 16.3091V11.4409H103.073V17.2255C103.073 17.3973 103.085 17.6709 103.111 18.0464C103.137 18.4218 103.211 18.8387 103.333 19.2969C103.454 19.7487 103.656 20.1846 103.939 20.6046C104.227 21.0246 104.628 21.3714 105.141 21.645C105.654 21.9186 106.318 22.0555 107.132 22.0555Z" fill="white"/>
<path d="M114.323 21.7502H116.959V15.5074C116.959 14.9156 117.122 14.4352 117.449 14.066C117.782 13.6906 118.221 13.5029 118.767 13.5029C119.338 13.5029 119.784 13.6938 120.104 14.0756C120.431 14.4511 120.595 14.9792 120.595 15.6602V21.7502H123.211V15.5074C123.211 14.9156 123.375 14.4352 123.702 14.066C124.035 13.6906 124.474 13.5029 125.019 13.5029C125.591 13.5029 126.036 13.6938 126.356 14.0756C126.684 14.4511 126.848 14.9792 126.848 15.6602V21.7502H129.463V14.9729C129.463 13.8465 129.159 12.9365 128.55 12.2429C127.947 11.5429 127.052 11.1929 125.866 11.1929C125.199 11.1929 124.587 11.336 124.028 11.6224C123.471 11.9088 123.025 12.3002 122.691 12.7965C122.422 12.3129 122.038 11.9247 121.537 11.632C121.037 11.3393 120.415 11.1929 119.671 11.1929C119.042 11.1929 118.466 11.317 117.94 11.5652C117.414 11.807 116.977 12.1411 116.631 12.5674V11.441H114.323V21.7502Z" fill="white"/>
<path d="M15.1163 0C6.76778 0 0 6.71572 0 15C8.34849 15 15.1163 8.28428 15.1163 0Z" fill="white"/>
<path d="M15.1162 30C23.4647 30 30.2325 23.2843 30.2325 15C21.884 15 15.1162 21.7157 15.1162 30Z" fill="white"/>
<path d="M15.1162 0C23.4647 0 30.2325 6.71572 30.2325 15C21.884 15 15.1162 8.28428 15.1162 0Z" fill="white"/>
<path d="M15.1163 30C6.76778 30 -7.29848e-07 23.2843 0 15C8.34849 15 15.1163 21.7157 15.1163 30Z" fill="white"/>
</g>
<defs>
<clipPath id="clip0_2028_448">
<rect width="130" height="30" fill="white"/>
</clipPath>
</defs>
</svg>
