<svg width="17" height="16" viewBox="0 0 17 16" fill="none" xmlns="http://www.w3.org/2000/svg">
<path d="M8.33629 3.8916C7.79715 3.89151 7.26326 3.99764 6.76514 4.20392C6.26702 4.4102 5.81442 4.7126 5.43319 5.09383C5.05195 5.47506 4.74956 5.92767 4.54328 6.42579C4.337 6.92391 4.23087 7.45779 4.23096 7.99694C4.23087 8.53608 4.337 9.06996 4.54328 9.56808C4.74956 10.0662 5.05195 10.5188 5.43319 10.9C5.81442 11.2813 6.26702 11.5837 6.76514 11.7899C7.26326 11.9962 7.79715 12.1024 8.33629 12.1023C8.87543 12.1024 9.40932 11.9962 9.90744 11.7899C10.4056 11.5837 10.8582 11.2813 11.2394 10.9C11.6206 10.5188 11.923 10.0662 12.1293 9.56808C12.3356 9.06996 12.4417 8.53608 12.4416 7.99694C12.4417 7.45779 12.3356 6.92391 12.1293 6.42579C11.923 5.92767 11.6206 5.47506 11.2394 5.09383C10.8582 4.7126 10.4056 4.4102 9.90744 4.20392C9.40932 3.99764 8.87543 3.89151 8.33629 3.8916ZM8.33629 10.6616C7.80946 10.6615 7.29449 10.5051 6.8565 10.2124C6.41851 9.91958 6.07716 9.50352 5.87561 9.01676C5.67407 8.53001 5.62137 7.99442 5.72418 7.47772C5.82699 6.96101 6.0807 6.4864 6.45322 6.11387C6.82575 5.74134 7.30037 5.48763 7.81707 5.38482C8.33378 5.28201 8.86936 5.33471 9.35612 5.53626C9.84287 5.73781 10.2589 6.07916 10.5517 6.51715C10.8445 6.95514 11.0008 7.4701 11.001 7.99694C11.0011 8.34691 10.9323 8.6935 10.7985 9.01687C10.6646 9.34024 10.4684 9.63406 10.2209 9.88153C9.97341 10.129 9.67959 10.3253 9.35622 10.4591C9.03285 10.593 8.68627 10.6618 8.33629 10.6616Z" fill="white"/>
<path d="M11.6323 0.0502578C10.1603 -0.0184089 6.51431 -0.0150756 5.04098 0.0502578C3.74631 0.110924 2.60431 0.423591 1.68365 1.34426C0.144981 2.88292 0.341648 4.95626 0.341648 7.99692C0.341648 11.1089 0.168314 13.1343 1.68365 14.6496C3.22831 16.1936 5.33165 15.9916 8.33631 15.9916C11.419 15.9916 12.483 15.9936 13.573 15.5716C15.055 14.9963 16.1736 13.6716 16.283 11.2923C16.3523 9.81959 16.3483 6.17426 16.283 4.70092C16.151 1.89226 14.6436 0.188924 11.6323 0.0502578ZM13.9623 13.6316C12.9536 14.6403 11.5543 14.5503 8.31698 14.5503C4.98365 14.5503 3.64698 14.5996 2.67165 13.6216C1.54831 12.5036 1.75165 10.7083 1.75165 7.98626C1.75165 4.30292 1.37365 1.65026 5.07031 1.46092C5.91965 1.43092 6.16965 1.42092 8.30765 1.42092L8.33765 1.44092C11.8903 1.44092 14.6776 1.06892 14.845 4.76492C14.883 5.60826 14.8916 5.86159 14.8916 7.99626C14.891 11.2909 14.9536 12.6356 13.9623 13.6316Z" fill="white"/>
<path d="M12.6044 4.68917C13.1342 4.68917 13.5637 4.25967 13.5637 3.72984C13.5637 3.20002 13.1342 2.77051 12.6044 2.77051C12.0745 2.77051 11.645 3.20002 11.645 3.72984C11.645 4.25967 12.0745 4.68917 12.6044 4.68917Z" fill="white"/>
</svg>
