<svg width="14" height="14" viewBox="0 0 14 14" fill="none" xmlns="http://www.w3.org/2000/svg">
<path d="M13.7336 13.3996V8.71161C13.7336 6.40761 13.2376 4.64761 10.5496 4.64761C9.25359 4.64761 8.38959 5.35161 8.03759 6.02361H8.00559V4.85561H5.46159V13.3996H8.11759V9.15961C8.11759 8.03961 8.32559 6.96761 9.70159 6.96761C11.0616 6.96761 11.0776 8.23161 11.0776 9.22361V13.3836H13.7336V13.3996ZM1.14159 4.85561H3.79759V13.3996H1.14159V4.85561ZM2.46959 0.599609C1.62159 0.599609 0.933594 1.28761 0.933594 2.13561C0.933594 2.98361 1.62159 3.68761 2.46959 3.68761C3.31759 3.68761 4.00559 2.98361 4.00559 2.13561C4.00559 1.28761 3.31759 0.599609 2.46959 0.599609Z" fill="white"/>
</svg>
