<svg width="8" height="14" viewBox="0 0 8 14" fill="none" xmlns="http://www.w3.org/2000/svg">
<path d="M2.79744 7.83197H1.21344C0.957441 7.83197 0.877441 7.73597 0.877441 7.49597V5.55997C0.877441 5.30397 0.973441 5.22397 1.21344 5.22397H2.79744V3.81597C2.79744 3.17597 2.90944 2.56797 3.22944 2.00797C3.56544 1.43197 4.04544 1.04797 4.65344 0.823967C5.05344 0.679967 5.45344 0.615967 5.88544 0.615967H7.45344C7.67744 0.615967 7.77344 0.711967 7.77344 0.935967V2.75997C7.77344 2.98397 7.67744 3.07997 7.45344 3.07997C7.02144 3.07997 6.58944 3.07997 6.15744 3.09597C5.72544 3.09597 5.50144 3.30397 5.50144 3.75197C5.48544 4.23197 5.50144 4.69597 5.50144 5.19197H7.35744C7.61344 5.19197 7.70944 5.28797 7.70944 5.54397V7.47997C7.70944 7.73597 7.62944 7.81597 7.35744 7.81597H5.50144V13.032C5.50144 13.304 5.42144 13.4 5.13344 13.4H3.13344C2.89344 13.4 2.79744 13.304 2.79744 13.064V7.83197Z" fill="white"/>
</svg>
