<svg width="24" height="24" viewBox="0 0 24 24" fill="none" xmlns="http://www.w3.org/2000/svg">
<path d="M19.178 2.97309C17.2608 1.05586 14.7117 0 12.0004 0C9.28905 0 6.73989 1.05586 4.8227 2.97309C2.90547 4.89037 1.84961 7.43944 1.84961 10.1507C1.84961 15.6357 7.03577 20.1978 9.82197 22.6487C10.2092 22.9893 10.5435 23.2834 10.8099 23.5322C11.1437 23.844 11.572 23.9999 12.0003 23.9999C12.4287 23.9999 12.857 23.844 13.1908 23.5322C13.4572 23.2834 13.7916 22.9893 14.1788 22.6487C16.965 20.1977 22.1511 15.6357 22.1511 10.1507C22.1511 7.43944 21.0953 4.89037 19.178 2.97309ZM13.2502 21.5932C12.8545 21.9412 12.5128 22.2418 12.2311 22.5049C12.1017 22.6257 11.899 22.6258 11.7695 22.5049C11.4879 22.2417 11.1461 21.9412 10.7505 21.5931C8.13109 19.289 3.25539 15 3.25539 10.1508C3.25539 5.32884 7.17831 1.40592 12.0003 1.40592C16.8222 1.40592 20.7452 5.32884 20.7452 10.1508C20.7452 15 15.8695 19.289 13.2502 21.5932Z" fill="black"/>
<path d="M12.0007 5.29395C9.53406 5.29395 7.52734 7.30062 7.52734 9.76723C7.52734 12.2338 9.53406 14.2405 12.0007 14.2405C14.4673 14.2405 16.474 12.2338 16.474 9.76723C16.474 7.30062 14.4673 5.29395 12.0007 5.29395ZM12.0007 12.8346C10.3093 12.8346 8.93322 11.4585 8.93322 9.76718C8.93322 8.07584 10.3093 6.69977 12.0007 6.69977C13.6921 6.69977 15.0681 8.07584 15.0681 9.76718C15.0681 11.4585 13.6921 12.8346 12.0007 12.8346Z" fill="black"/>
</svg>
