<svg width="24" height="24" viewBox="0 0 24 24" fill="none" xmlns="http://www.w3.org/2000/svg">
<path fill-rule="evenodd" clip-rule="evenodd" d="M21.6979 15.8335C21.6979 17.8601 20.0493 19.5062 18.0252 19.5062H5.97562C3.95151 19.5062 2.30287 17.8601 2.30287 15.8335V8.16649C2.30242 7.5133 2.4774 6.87198 2.80954 6.30954L8.68898 12.189C9.56859 13.0712 10.7465 13.5573 12.0016 13.5573C13.2542 13.5573 14.4321 13.0712 15.3117 12.189L21.1911 6.30954C21.5233 6.87197 21.6983 7.5133 21.6978 8.16649V15.8335H21.6979ZM18.0251 4.49378H5.97562C5.13974 4.49378 4.36813 4.77668 3.75088 5.24735L9.68948 11.1885C10.3042 11.8006 11.1246 12.1401 12.0016 12.1401C12.8761 12.1401 13.6965 11.8006 14.3112 11.1885L20.2498 5.24735C19.6326 4.77668 18.861 4.49378 18.0251 4.49378ZM18.0251 3.07666H5.97562C3.16963 3.07666 0.885742 5.36055 0.885742 8.16654V15.8335C0.885742 18.6421 3.16963 20.9234 5.97562 20.9234H18.0251C20.8311 20.9234 23.115 18.6421 23.115 15.8335V8.16649C23.115 5.3605 20.8311 3.07666 18.0251 3.07666Z" fill="black"/>
</svg>
